<svg xmlns="http://www.w3.org/2000/svg" xmlns:xlink="http://www.w3.org/1999/xlink" width="250" zoomAndPan="magnify" viewBox="0 0 187.5 187.499992" height="250" preserveAspectRatio="xMidYMid meet" version="1.0"><defs><clipPath id="991985a355"><path d="M 0 0 L 187 0 L 187 187 L 0 187 Z M 0 0 " clip-rule="nonzero"/></clipPath><clipPath id="7745a0fe5a"><path d="M 93.5 0 C 41.863281 0 0 41.863281 0 93.5 C 0 145.140625 41.863281 187 93.5 187 C 145.140625 187 187 145.140625 187 93.5 C 187 41.863281 145.140625 0 93.5 0 Z M 93.5 0 " clip-rule="nonzero"/></clipPath><clipPath id="8ec89db00a"><path d="M 37.925781 56.472656 L 149.378906 56.472656 L 149.378906 130.527344 L 37.925781 130.527344 Z M 37.925781 56.472656 " clip-rule="nonzero"/></clipPath></defs><g clip-path="url(#991985a355)"><g clip-path="url(#7745a0fe5a)"><path fill="#2a0b62" d="M 0 0 L 187 0 L 187 187 L 0 187 Z M 0 0 " fill-opacity="1" fill-rule="nonzero"/></g></g><g clip-path="url(#8ec89db00a)"><path fill="#ffffff" d="M 56.472656 56.472656 C 51.359375 56.472656 47.21875 60.617188 47.21875 65.730469 L 47.21875 112.011719 C 47.21875 117.128906 51.359375 121.269531 56.472656 121.269531 L 37.960938 121.269531 L 37.960938 130.527344 L 149.039062 130.527344 L 149.039062 121.269531 L 130.527344 121.269531 C 135.640625 121.269531 139.78125 117.128906 139.78125 112.011719 L 139.78125 65.703125 C 139.78125 60.59375 135.640625 56.472656 130.527344 56.472656 Z M 56.472656 65.730469 L 130.527344 65.730469 L 130.535156 112.011719 L 56.472656 112.011719 Z M 102.757812 74.988281 L 102.757812 102.757812 L 112.011719 102.757812 L 112.011719 74.988281 Z M 88.871094 84.242188 L 88.871094 102.757812 L 98.128906 102.757812 L 98.128906 84.242188 Z M 74.988281 93.5 L 74.988281 102.757812 L 84.242188 102.757812 L 84.242188 93.5 Z M 74.988281 93.5 " fill-opacity="1" fill-rule="nonzero"/></g></svg>