<svg xmlns="http://www.w3.org/2000/svg" xmlns:xlink="http://www.w3.org/1999/xlink" width="250" zoomAndPan="magnify" viewBox="0 0 187.5 187.499992" height="250" preserveAspectRatio="xMidYMid meet" version="1.0"><defs><clipPath id="15478844e7"><path d="M 0 0 L 187 0 L 187 187 L 0 187 Z M 0 0 " clip-rule="nonzero"/></clipPath><clipPath id="e1bbb124d5"><path d="M 93.5 0 C 41.863281 0 0 41.863281 0 93.5 C 0 145.140625 41.863281 187 93.5 187 C 145.140625 187 187 145.140625 187 93.5 C 187 41.863281 145.140625 0 93.5 0 Z M 93.5 0 " clip-rule="nonzero"/></clipPath><clipPath id="6261253335"><path d="M 107 95 L 147.191406 95 L 147.191406 123 L 107 123 Z M 107 95 " clip-rule="nonzero"/></clipPath><clipPath id="74074070ba"><path d="M 39.480469 95 L 80 95 L 80 123 L 39.480469 123 Z M 39.480469 95 " clip-rule="nonzero"/></clipPath><clipPath id="e1ee35c056"><path d="M 62 99 L 125 99 L 125 131.4375 L 62 131.4375 Z M 62 99 " clip-rule="nonzero"/></clipPath><clipPath id="5bab9d1c94"><path d="M 74 55.890625 L 113 55.890625 L 113 95 L 74 95 Z M 74 55.890625 " clip-rule="nonzero"/></clipPath></defs><g clip-path="url(#15478844e7)"><g clip-path="url(#e1bbb124d5)"><path fill="#2a0b62" d="M 0 0 L 187 0 L 187 187 L 0 187 Z M 0 0 " fill-opacity="1" fill-rule="nonzero"/></g></g><g clip-path="url(#6261253335)"><path fill="#ffffff" d="M 124.695312 122.289062 L 147.46875 122.289062 C 144.753906 101.320312 134.277344 95.640625 121.757812 95.640625 C 116.292969 95.640625 111.214844 96.71875 107 99.6875 C 115.808594 103.171875 121.664062 110.660156 124.695312 122.289062 " fill-opacity="1" fill-rule="nonzero"/></g><path fill="#ffffff" d="M 121.757812 59.269531 C 117.71875 59.269531 114.035156 60.765625 111.210938 63.234375 C 113.523438 66.617188 114.875 70.710938 114.875 75.113281 C 114.875 79.644531 113.429688 83.84375 110.988281 87.289062 C 113.839844 89.871094 117.609375 91.457031 121.757812 91.457031 C 130.644531 91.457031 137.855469 84.25 137.855469 75.355469 C 137.855469 66.472656 130.644531 59.269531 121.757812 59.269531 " fill-opacity="1" fill-rule="nonzero"/><g clip-path="url(#74074070ba)"><path fill="#ffffff" d="M 62.300781 122.289062 L 39.53125 122.289062 C 42.238281 101.320312 52.722656 95.640625 65.242188 95.640625 C 70.703125 95.640625 75.78125 96.71875 79.992188 99.6875 C 71.191406 103.171875 65.335938 110.660156 62.300781 122.289062 " fill-opacity="1" fill-rule="nonzero"/></g><path fill="#ffffff" d="M 65.242188 59.269531 C 69.285156 59.269531 72.960938 60.765625 75.789062 63.234375 C 73.476562 66.617188 72.121094 70.710938 72.121094 75.113281 C 72.121094 79.644531 73.570312 83.84375 76.015625 87.289062 C 73.15625 89.871094 69.386719 91.457031 65.242188 91.457031 C 56.355469 91.457031 49.144531 84.25 49.144531 75.355469 C 49.144531 66.472656 56.355469 59.269531 65.242188 59.269531 " fill-opacity="1" fill-rule="nonzero"/><g clip-path="url(#e1ee35c056)"><path fill="#ffffff" d="M 124.1875 131.128906 C 120.953125 106.105469 108.445312 99.316406 93.5 99.316406 C 78.554688 99.316406 66.046875 106.105469 62.808594 131.128906 L 124.1875 131.128906 " fill-opacity="1" fill-rule="nonzero"/></g><g clip-path="url(#5bab9d1c94)"><path fill="#ffffff" d="M 112.707031 75.113281 C 112.707031 85.71875 104.105469 94.320312 93.5 94.320312 C 82.886719 94.320312 74.292969 85.71875 74.292969 75.113281 C 74.292969 64.507812 82.886719 55.90625 93.5 55.90625 C 104.105469 55.90625 112.707031 64.507812 112.707031 75.113281 " fill-opacity="1" fill-rule="nonzero"/></g></svg>