<svg xmlns="http://www.w3.org/2000/svg" xmlns:xlink="http://www.w3.org/1999/xlink" width="250" zoomAndPan="magnify" viewBox="0 0 187.5 187.499992" height="250" preserveAspectRatio="xMidYMid meet" version="1.0"><defs><clipPath id="268cd2dfea"><path d="M 0 0 L 187 0 L 187 187 L 0 187 Z M 0 0 " clip-rule="nonzero"/></clipPath><clipPath id="191382f551"><path d="M 93.5 0 C 41.863281 0 0 41.863281 0 93.5 C 0 145.140625 41.863281 187 93.5 187 C 145.140625 187 187 145.140625 187 93.5 C 187 41.863281 145.140625 0 93.5 0 Z M 93.5 0 " clip-rule="nonzero"/></clipPath><clipPath id="03c633db60"><path d="M 56.488281 50.140625 L 101.886719 50.140625 L 101.886719 143.640625 L 56.488281 143.640625 Z M 56.488281 50.140625 " clip-rule="nonzero"/></clipPath><clipPath id="9cf121b501"><path d="M 90 58 L 135.023438 58 L 135.023438 131 L 90 131 Z M 90 58 " clip-rule="nonzero"/></clipPath></defs><g clip-path="url(#268cd2dfea)"><g clip-path="url(#191382f551)"><path fill="#2a0b62" d="M 0 0 L 187 0 L 187 187 L 0 187 Z M 0 0 " fill-opacity="1" fill-rule="nonzero"/></g></g><g clip-path="url(#03c633db60)"><path fill="#ffffff" d="M 68.726562 91.605469 C 68.71875 91.3125 68.71875 91.015625 68.71875 90.71875 L 68.71875 59.519531 C 79.773438 54.75 88.929688 51.75 96.980469 50.148438 C 83.234375 49.992188 69.46875 52.539062 56.488281 57.789062 L 56.488281 90.71875 C 56.488281 115.101562 72.441406 136.613281 95.773438 143.695312 C 97.871094 143.054688 99.914062 142.300781 101.886719 141.4375 C 82.195312 132.832031 69.074219 113.433594 68.726562 91.605469 " fill-opacity="1" fill-rule="nonzero"/></g><g clip-path="url(#9cf121b501)"><path fill="#ffffff" d="M 135.054688 62.371094 C 125.304688 58.933594 119.34375 57.558594 108 58.328125 C 101.695312 58.757812 95.117188 60.683594 90.027344 62.550781 C 91.933594 62.433594 93.847656 62.371094 95.773438 62.371094 C 105.003906 62.371094 114.074219 63.726562 122.828125 66.410156 L 122.828125 90.71875 C 122.828125 100.039062 119.894531 108.921875 114.339844 116.410156 C 110.921875 121.023438 106.703125 124.835938 101.886719 127.71875 C 103.832031 128.882812 105.871094 129.894531 108 130.746094 C 115.402344 127.789062 121.769531 122.882812 126.570312 116.410156 C 131.945312 109.160156 134.867188 100.605469 135.046875 91.605469 C 135.050781 91.3125 135.054688 91.015625 135.054688 90.71875 L 135.054688 62.371094 " fill-opacity="1" fill-rule="nonzero"/></g></svg>