<svg xmlns="http://www.w3.org/2000/svg" xmlns:xlink="http://www.w3.org/1999/xlink" width="250" zoomAndPan="magnify" viewBox="0 0 187.5 187.499992" height="250" preserveAspectRatio="xMidYMid meet" version="1.0"><defs><clipPath id="244b0b6ba2"><path d="M 0 0 L 187 0 L 187 187 L 0 187 Z M 0 0 " clip-rule="nonzero"/></clipPath><clipPath id="5149cae85f"><path d="M 93.5 0 C 41.863281 0 0 41.863281 0 93.5 C 0 145.140625 41.863281 187 93.5 187 C 145.140625 187 187 145.140625 187 93.5 C 187 41.863281 145.140625 0 93.5 0 Z M 93.5 0 " clip-rule="nonzero"/></clipPath><clipPath id="f55badda59"><path d="M 32 57.566406 L 155 57.566406 L 155 141.339844 L 32 141.339844 Z M 32 57.566406 " clip-rule="nonzero"/></clipPath></defs><g clip-path="url(#244b0b6ba2)"><g clip-path="url(#5149cae85f)"><path fill="#2a0b62" d="M 0 0 L 187 0 L 187 187 L 0 187 Z M 0 0 " fill-opacity="1" fill-rule="nonzero"/></g></g><g clip-path="url(#f55badda59)"><path fill="#ffffff" d="M 154.390625 82.078125 L 131.886719 58.121094 C 131.375 57.578125 130.519531 57.550781 129.980469 58.0625 L 120.523438 66.996094 C 119.980469 67.507812 119.957031 68.367188 120.46875 68.910156 L 142.972656 92.867188 C 143.484375 93.410156 144.335938 93.4375 144.878906 92.925781 L 154.332031 83.988281 C 154.875 83.476562 154.902344 82.621094 154.390625 82.078125 Z M 146.167969 84.796875 C 144.988281 85.914062 143.125 85.859375 142.011719 84.675781 C 140.898438 83.488281 140.953125 81.621094 142.136719 80.503906 C 143.316406 79.386719 145.179688 79.441406 146.292969 80.628906 C 147.40625 81.8125 147.351562 83.679688 146.167969 84.796875 Z M 65.789062 69.425781 L 55.484375 61.398438 C 54.898438 60.9375 54.050781 61.046875 53.59375 61.636719 L 32.589844 88.746094 C 32.132812 89.335938 32.242188 90.1875 32.828125 90.644531 L 43.128906 98.671875 C 43.71875 99.128906 44.566406 99.023438 45.023438 98.433594 L 66.027344 71.324219 C 66.480469 70.734375 66.375 69.882812 65.789062 69.425781 Z M 45.601562 89.644531 C 44.601562 90.9375 42.746094 91.167969 41.460938 90.164062 C 40.171875 89.164062 39.941406 87.304688 40.941406 86.011719 C 41.941406 84.71875 43.796875 84.488281 45.082031 85.492188 C 46.371094 86.492188 46.601562 88.351562 45.601562 89.644531 Z M 135.023438 94.28125 C 137.109375 96.414062 137.078125 99.835938 134.953125 101.929688 L 126.726562 109.667969 L 100.316406 88.988281 L 91.925781 96.691406 C 87.625 100.566406 83.300781 102.253906 79.425781 101.589844 C 76.171875 101.027344 73.996094 98.941406 73.121094 97.328125 L 72.984375 97.09375 C 72.472656 96.308594 73.03125 95.65625 73.285156 95.421875 L 95.738281 74.949219 L 98.085938 72.808594 C 99.257812 71.742188 100.835938 71.246094 102.40625 71.453125 L 112.382812 72.765625 C 113.578125 72.921875 114.6875 73.476562 115.53125 74.339844 Z M 124.410156 122.15625 L 122.394531 124.578125 C 121.53125 125.613281 120.292969 126.144531 119.046875 126.144531 C 118.039062 126.144531 117.027344 125.796875 116.203125 125.082031 L 113.878906 123.066406 C 115.796875 124.738281 115.886719 127.699219 114.070312 129.484375 L 112.777344 130.753906 C 111.933594 131.582031 110.832031 132.003906 109.726562 132.003906 C 108.742188 132.003906 107.75 131.667969 106.941406 130.988281 L 103.417969 128.046875 C 105.410156 129.710938 105.519531 132.738281 103.652344 134.542969 L 102.1875 135.960938 C 101.34375 136.773438 100.253906 137.1875 99.164062 137.1875 C 98.171875 137.1875 97.179688 136.847656 96.367188 136.164062 L 91.605469 132.160156 C 93.503906 133.757812 93.691406 136.625 92.015625 138.457031 L 90.742188 139.855469 C 89.886719 140.789062 88.710938 141.273438 87.527344 141.273438 C 86.589844 141.273438 85.644531 140.96875 84.851562 140.347656 L 56.480469 118.164062 C 54.785156 116.835938 53.691406 114.894531 53.429688 112.757812 L 52.382812 104.238281 C 52.125 102.101562 52.71875 99.949219 54.039062 98.25 L 70.226562 77.269531 C 72.355469 74.511719 75.546875 73.070312 78.769531 73.070312 C 81.058594 73.070312 83.359375 73.8125 85.316406 75.3125 L 68.734375 90.429688 C 65.773438 93.15625 65.175781 97.347656 67.257812 100.667969 C 68.957031 103.726562 72.722656 107.296875 78.277344 108.257812 C 79.125 108.402344 80.078125 108.5 81.113281 108.5 C 85.152344 108.5 90.507812 107.058594 96.453125 101.707031 L 100.664062 97.84375 L 123.742188 115.914062 C 125.683594 117.433594 125.988281 120.261719 124.410156 122.15625 Z M 124.410156 122.15625 " fill-opacity="1" fill-rule="nonzero"/></g></svg>