<svg xmlns="http://www.w3.org/2000/svg" xmlns:xlink="http://www.w3.org/1999/xlink" width="250" zoomAndPan="magnify" viewBox="0 0 187.5 187.499992" height="250" preserveAspectRatio="xMidYMid meet" version="1.0"><defs><filter x="0%" y="0%" width="100%" height="100%" id="5c2f0db759"><feColorMatrix values="0 0 0 0 1 0 0 0 0 1 0 0 0 0 1 0 0 0 1 0" color-interpolation-filters="sRGB"/></filter><clipPath id="7373a76339"><path d="M 0 0 L 187 0 L 187 187 L 0 187 Z M 0 0 " clip-rule="nonzero"/></clipPath><clipPath id="2324f7838a"><path d="M 93.5 187 C 68.539062 187 45.03125 177.285156 27.390625 159.609375 C 9.714844 141.96875 0 118.464844 0 93.5 C 0 68.539062 9.714844 45.03125 27.390625 27.390625 C 45.03125 9.714844 68.539062 0 93.5 0 C 118.464844 0 141.96875 9.714844 159.609375 27.390625 C 177.285156 45.070312 187 68.539062 187 93.5 C 187 118.464844 177.285156 141.96875 159.609375 159.609375 C 141.96875 177.285156 118.464844 187 93.5 187 Z M 93.5 5.605469 C 70.03125 5.605469 47.945312 14.761719 31.355469 31.355469 C 14.761719 47.945312 5.605469 70.03125 5.605469 93.5 C 5.605469 116.96875 14.761719 139.054688 31.355469 155.648438 C 47.945312 172.238281 70.03125 181.394531 93.5 181.394531 C 116.96875 181.394531 139.054688 172.238281 155.648438 155.648438 C 172.238281 139.054688 181.394531 116.96875 181.394531 93.5 C 181.394531 70.03125 172.238281 47.945312 155.648438 31.355469 C 139.054688 14.761719 116.96875 5.605469 93.5 5.605469 Z M 93.5 5.605469 " clip-rule="nonzero"/></clipPath><mask id="96ea01283d"><g filter="url(#5c2f0db759)"><rect x="-18.75" width="225" fill="#000000" y="-18.749999" height="224.99999" fill-opacity="0.75"/></g></mask><clipPath id="f0489300a4"><path d="M 90.65625 2.066406 L 136.203125 2.066406 L 136.203125 50.460938 L 90.65625 50.460938 Z M 90.65625 2.066406 " clip-rule="nonzero"/></clipPath><clipPath id="648f2a20b0"><path d="M 98.289062 24.671875 L 136.203125 24.671875 L 136.203125 50.460938 L 98.289062 50.460938 Z M 98.289062 24.671875 " clip-rule="nonzero"/></clipPath><clipPath id="bd843a2032"><path d="M 0.886719 0.25 L 45 0.25 L 45 48 L 0.886719 48 Z M 0.886719 0.25 " clip-rule="nonzero"/></clipPath><clipPath id="7106d05f97"><path d="M 0.886719 20 L 38 20 L 38 48 L 0.886719 48 Z M 0.886719 20 " clip-rule="nonzero"/></clipPath><clipPath id="2f1a36c1d3"><rect x="0" width="137" y="0" height="59"/></clipPath></defs><g clip-path="url(#7373a76339)"><g clip-path="url(#2324f7838a)"><path fill="#570a57" d="M 0 0 L 187 0 L 187 187 L 0 187 Z M 0 0 " fill-opacity="1" fill-rule="nonzero"/></g></g><g mask="url(#96ea01283d)"><g transform="matrix(1, 0, 0, 1, 25, 60)"><g clip-path="url(#2f1a36c1d3)"><path fill="#e66f64" d="M 89.316406 33.597656 L 93.183594 42.734375 C 93.183594 42.734375 90.632812 42.347656 88.777344 43.433594 C 86.917969 44.515625 79.492188 51.875 67.265625 55.589844 C 67.265625 55.589844 60.378906 51.023438 56.667969 48.3125 C 52.953125 45.601562 51.328125 44.207031 51.328125 44.207031 L 50.785156 42.503906 C 50.785156 42.503906 62.082031 30.699219 64.714844 28.894531 C 67.34375 27.089844 89.316406 33.597656 89.316406 33.597656 " fill-opacity="1" fill-rule="nonzero"/><path fill="#f6a27d" d="M 70.566406 30.292969 C 70.566406 30.292969 84.386719 44.523438 84.957031 45.214844 C 84.957031 45.214844 86.507812 45.144531 86.660156 45.023438 C 86.8125 44.902344 87.898438 47.28125 86.402344 49.191406 C 84.90625 51.101562 83.152344 50.117188 83 50.117188 C 82.84375 50.117188 82.84375 50.117188 82.84375 50.117188 C 82.84375 50.117188 83.78125 53.601562 78.875 53.148438 C 78.875 53.148438 77.421875 55.882812 73.558594 55.332031 C 73.558594 55.332031 70.566406 57.863281 67.886719 55.152344 C 65.203125 52.441406 50.785156 44.492188 50.785156 44.492188 L 43.902344 37.625 L 49.214844 21.667969 L 69.792969 22.339844 L 70.566406 30.292969 " fill-opacity="1" fill-rule="nonzero"/><path fill="#e07b5d" d="M 68.304688 55.527344 C 68.164062 55.414062 68.023438 55.292969 67.886719 55.152344 C 67.820312 55.085938 67.746094 55.015625 67.667969 54.941406 L 66.132812 53.472656 C 67.164062 50.738281 65.695312 49.707031 64.636719 49.679688 C 64.632812 49.679688 64.628906 49.679688 64.625 49.679688 C 64.527344 49.679688 64.421875 49.71875 64.304688 49.785156 C 64.496094 49.144531 64.542969 48.507812 64.34375 47.921875 C 63.964844 46.796875 63.070312 46.398438 62.234375 46.296875 C 62.394531 46.28125 62.578125 46.265625 62.765625 46.265625 C 63.714844 46.265625 64.917969 46.566406 65.375 47.921875 C 65.574219 48.507812 65.527344 49.148438 65.335938 49.785156 C 65.453125 49.71875 65.5625 49.679688 65.660156 49.679688 C 65.660156 49.679688 65.664062 49.679688 65.667969 49.679688 C 66.726562 49.707031 68.195312 50.738281 67.164062 53.472656 L 68.917969 55.152344 C 68.917969 55.152344 68.683594 55.3125 68.304688 55.527344 M 60.070312 46.714844 C 60.121094 46.21875 60.074219 45.691406 59.917969 45.117188 C 59.585938 43.898438 58.332031 43.484375 57.570312 43.347656 C 57.710938 43.316406 57.855469 43.292969 58.007812 43.277344 C 58.007812 43.277344 60.464844 43.335938 60.949219 45.117188 C 61.0625 45.535156 61.117188 45.929688 61.121094 46.308594 C 60.738281 46.355469 60.46875 46.433594 60.4375 46.453125 C 60.316406 46.527344 60.195312 46.613281 60.070312 46.714844 M 54.378906 44.742188 C 54.40625 43.835938 54.34375 41.964844 53.378906 41.300781 C 52.910156 40.980469 52.453125 40.777344 52.035156 40.679688 C 52.191406 40.640625 52.355469 40.617188 52.527344 40.617188 C 53.082031 40.617188 53.730469 40.835938 54.410156 41.300781 C 55.113281 41.785156 55.339844 42.90625 55.394531 43.832031 C 55.039062 44.070312 54.71875 44.378906 54.378906 44.742188 " fill-opacity="1" fill-rule="nonzero"/><path fill="#d2584f" d="M 74.015625 33.210938 C 73.742188 33.164062 73.484375 33.109375 73.238281 33.042969 C 73.089844 32.890625 72.949219 32.746094 72.8125 32.605469 C 73.183594 32.800781 73.589844 33.003906 74.015625 33.210938 " fill-opacity="1" fill-rule="nonzero"/><path fill="#e07b5d" d="M 61.691406 37.5625 C 60.625 37.5625 59.839844 37.3125 59.839844 37.3125 C 59.839844 37.3125 60.109375 37.359375 60.539062 37.359375 C 62.035156 37.359375 65.488281 36.800781 66.570312 31.8125 L 70.050781 30.964844 C 70.050781 30.964844 71.125 31.714844 72.8125 32.605469 C 72.949219 32.746094 73.089844 32.890625 73.238281 33.042969 C 71.203125 32.515625 70.15625 31.453125 70.15625 31.453125 L 67.164062 32.71875 C 66.246094 36.8125 63.542969 37.5625 61.691406 37.5625 " fill-opacity="1" fill-rule="nonzero"/><path fill="#f78e80" d="M 86.066406 24.378906 C 86.066406 24.378906 74.539062 20.429688 72.527344 20.429688 C 70.515625 20.429688 62.757812 24.710938 60.84375 25.773438 C 58.988281 26.804688 60.382812 28.894531 59.839844 37.3125 C 59.839844 37.3125 65.175781 38.242188 66.570312 31.8125 L 70.050781 30.964844 C 70.050781 30.964844 77.789062 36.382812 84.441406 35.378906 C 91.097656 34.371094 89.316406 33.597656 89.316406 33.597656 L 86.066406 24.378906 " fill-opacity="1" fill-rule="nonzero"/><path fill="#f78e80" d="M 61.308594 54.121094 C 61.308594 54.121094 63.578125 49.652344 64.636719 49.679688 C 65.695312 49.707031 67.164062 50.738281 66.132812 53.472656 L 67.886719 55.152344 C 67.886719 55.152344 65.460938 56.832031 63.347656 56.597656 C 61.230469 56.367188 61.308594 54.121094 61.308594 54.121094 " fill-opacity="1" fill-rule="nonzero"/><path fill="#f78e80" d="M 56.976562 43.277344 C 56.976562 43.277344 59.433594 43.335938 59.917969 45.117188 C 60.398438 46.898438 59.847656 48.226562 58.582031 49.679688 C 57.316406 51.132812 55.816406 52.707031 53.398438 51.449219 C 50.980469 50.191406 52.625 46.761719 53.707031 45.503906 C 54.789062 44.246094 55.503906 43.433594 56.976562 43.277344 " fill-opacity="1" fill-rule="nonzero"/><path fill="#f78e80" d="M 54.34375 45.253906 C 54.34375 45.253906 54.675781 42.191406 53.378906 41.300781 C 52.082031 40.410156 50.902344 40.429688 50.265625 41.128906 C 49.625 41.824219 48.640625 43.414062 49.125 45.601562 C 49.605469 47.789062 51.695312 48.15625 52.855469 47.75 C 54.015625 47.34375 54.34375 45.253906 54.34375 45.253906 " fill-opacity="1" fill-rule="nonzero"/><path fill="#f78e80" d="M 56.996094 51.621094 C 56.996094 51.621094 58.71875 47.476562 60.4375 46.453125 C 60.546875 46.390625 63.550781 45.582031 64.34375 47.921875 C 65.136719 50.265625 62.007812 53.480469 61.308594 54.121094 C 60.613281 54.757812 56.144531 55.417969 56.996094 51.621094 " fill-opacity="1" fill-rule="nonzero"/><path fill="#0c1821" d="M 90.785156 21.980469 C 90.785156 21.980469 95.121094 39.34375 96.125 42.085938 C 97.132812 44.828125 99.453125 49.933594 101.386719 50.441406 L 99.53125 31.039062 L 90.785156 21.980469 " fill-opacity="1" fill-rule="nonzero"/><path fill="#edecd5" d="M 85.0625 22.960938 L 92.023438 44.542969 L 99.140625 43.277344 L 91.097656 20.894531 L 85.0625 22.960938 " fill-opacity="1" fill-rule="nonzero"/><path fill="#341714" d="M 32.371094 46.761719 L 33.300781 47.894531 C 33.300781 47.894531 33.765625 49.707031 38.175781 41.417969 C 42.585938 33.132812 44.675781 18.261719 44.675781 18.261719 L 32.371094 46.761719 " fill-opacity="1" fill-rule="nonzero"/><path fill="#edecd5" d="M 43.4375 18.648438 L 50.785156 21.28125 L 42.507812 44.257812 L 34.152344 40.617188 L 43.4375 18.648438 " fill-opacity="1" fill-rule="nonzero"/><g clip-path="url(#f0489300a4)"><path fill="#122a3d" d="M 90.785156 20.429688 L 101.386719 50.441406 L 136.203125 37.359375 L 136.203125 2.160156 L 90.785156 20.429688 " fill-opacity="1" fill-rule="nonzero"/></g><g clip-path="url(#648f2a20b0)"><path fill="#0c1821" d="M 123.96875 30.726562 C 117.828125 33.378906 111.707031 36.074219 105.542969 38.671875 C 106.332031 38.339844 107.121094 38.003906 107.910156 37.671875 C 104.75 39.121094 101.539062 40.445312 98.324219 41.765625 L 101.386719 50.441406 L 136.203125 37.359375 L 136.203125 24.847656 C 133.519531 26.097656 126.6875 29.550781 123.96875 30.726562 " fill-opacity="1" fill-rule="nonzero"/></g><g clip-path="url(#bd843a2032)"><path fill="#ebccb1" d="M 44.675781 18.261719 L 33.300781 47.894531 L 0.960938 33.335938 L 0.960938 0.25 L 44.675781 18.261719 " fill-opacity="1" fill-rule="nonzero"/></g><g clip-path="url(#7106d05f97)"><path fill="#a48d7a" d="M 14.445312 27.390625 C 11.328125 26.085938 4.089844 21.992188 0.960938 20.707031 L 0.960938 33.335938 L 33.300781 47.894531 L 37.101562 37.992188 C 29.617188 34.308594 22.125 30.671875 14.445312 27.390625 " fill-opacity="1" fill-rule="nonzero"/></g><path fill="#e5b8aa" d="M 74.558594 55.40625 L 74.558594 55.40625 M 74.558594 55.40625 C 77.675781 55.40625 78.875 53.148438 78.875 53.148438 C 78.878906 53.152344 78.886719 53.152344 78.890625 53.152344 C 78.886719 53.152344 78.878906 53.152344 78.875 53.148438 C 78.875 53.148438 77.675781 55.40625 74.558594 55.40625 M 73.578125 55.335938 C 73.574219 55.335938 73.570312 55.335938 73.570312 55.335938 C 73.570312 55.335938 73.574219 55.335938 73.578125 55.335938 M 79.707031 53.191406 C 83.648438 53.191406 82.851562 50.148438 82.84375 50.117188 C 82.851562 50.148438 83.648438 53.191406 79.707031 53.191406 M 84.226562 50.371094 C 84.859375 50.371094 85.644531 50.136719 86.375 49.222656 C 85.644531 50.136719 84.859375 50.371094 84.226562 50.371094 M 83.023438 50.121094 C 83.011719 50.121094 83.003906 50.117188 83 50.117188 C 82.84375 50.117188 82.84375 50.117188 82.84375 50.117188 C 82.84375 50.117188 82.84375 50.117188 83 50.117188 C 83.003906 50.117188 83.011719 50.121094 83.023438 50.121094 M 86.402344 49.191406 C 86.40625 49.1875 86.40625 49.183594 86.410156 49.179688 C 86.40625 49.183594 86.40625 49.1875 86.402344 49.191406 M 86.421875 49.160156 C 86.429688 49.15625 86.433594 49.152344 86.4375 49.144531 C 86.433594 49.152344 86.429688 49.15625 86.421875 49.160156 M 87.117188 46.132812 C 87 45.476562 86.765625 45.027344 86.675781 45.015625 C 86.765625 45.027344 87 45.476562 87.117188 46.132812 M 86.660156 45.023438 C 86.664062 45.019531 86.667969 45.015625 86.675781 45.015625 C 86.667969 45.015625 86.664062 45.019531 86.660156 45.023438 " fill-opacity="1" fill-rule="nonzero"/><path fill="#d2584f" d="M 84.957031 45.214844 C 84.773438 44.992188 83.226562 43.371094 81.207031 41.277344 C 83.226562 43.371094 84.773438 44.992188 84.957031 45.214844 " fill-opacity="1" fill-rule="nonzero"/><path fill="#e07b5d" d="M 70.667969 56.402344 C 69.925781 56.402344 69.109375 56.179688 68.304688 55.527344 C 68.304688 55.527344 68.804688 55.648438 69.519531 55.648438 C 70.417969 55.648438 71.648438 55.460938 72.628906 54.609375 C 72.628906 54.609375 72.855469 54.640625 73.21875 54.640625 C 74.363281 54.640625 76.878906 54.367188 78.148438 52.132812 C 78.148438 52.132812 78.226562 52.136719 78.359375 52.136719 C 79.09375 52.136719 81.507812 51.960938 81.96875 49.679688 C 81.96875 49.679688 85.292969 49.679688 85.0625 46.089844 L 81.207031 41.277344 C 83.226562 43.371094 84.773438 44.992188 84.957031 45.214844 C 84.957031 45.214844 86.507812 45.144531 86.660156 45.023438 C 86.664062 45.019531 86.667969 45.015625 86.675781 45.015625 C 86.765625 45.027344 87 45.476562 87.117188 46.132812 C 87.265625 46.957031 87.21875 48.117188 86.4375 49.144531 C 86.433594 49.152344 86.429688 49.15625 86.421875 49.160156 L 86.421875 49.164062 C 86.417969 49.167969 86.414062 49.171875 86.410156 49.179688 C 86.40625 49.183594 86.40625 49.1875 86.402344 49.191406 C 86.394531 49.199219 86.382812 49.210938 86.375 49.222656 C 85.644531 50.136719 84.859375 50.371094 84.226562 50.371094 C 84.226562 50.371094 84.222656 50.371094 84.222656 50.371094 C 83.617188 50.371094 83.152344 50.15625 83.023438 50.121094 C 83.011719 50.121094 83.003906 50.117188 83 50.117188 C 82.84375 50.117188 82.84375 50.117188 82.84375 50.117188 C 82.851562 50.148438 83.648438 53.191406 79.707031 53.191406 C 79.707031 53.191406 79.707031 53.191406 79.703125 53.191406 C 79.453125 53.191406 79.183594 53.175781 78.890625 53.152344 C 78.886719 53.152344 78.878906 53.152344 78.875 53.148438 C 78.875 53.148438 77.675781 55.40625 74.558594 55.40625 C 74.25 55.40625 73.921875 55.382812 73.578125 55.335938 C 73.574219 55.335938 73.570312 55.335938 73.570312 55.335938 C 73.566406 55.332031 73.5625 55.332031 73.558594 55.332031 C 73.554688 55.335938 72.289062 56.402344 70.667969 56.402344 " fill-opacity="1" fill-rule="nonzero"/><path fill="#f5a68f" d="M 59.839844 37.144531 L 59.890625 30.179688 C 59.894531 30.171875 59.898438 30.167969 59.902344 30.160156 C 59.96875 31.792969 60.042969 34.027344 59.847656 37.140625 C 59.84375 37.144531 59.839844 37.144531 59.839844 37.144531 " fill-opacity="1" fill-rule="nonzero"/><path fill="#f59c90" d="M 59.847656 37.140625 C 60.042969 34.027344 59.96875 31.792969 59.902344 30.160156 C 60.164062 29.820312 60.910156 29.761719 61.394531 29.761719 C 61.648438 29.761719 61.832031 29.777344 61.832031 29.777344 C 63.136719 30.886719 62.992188 35.664062 62.992188 35.664062 C 61.9375 37.050781 60.011719 37.136719 59.847656 37.140625 " fill-opacity="1" fill-rule="nonzero"/><path fill="#f59c90" d="M 52.308594 45.417969 C 52.277344 45.417969 52.257812 45.414062 52.257812 45.414062 C 52.257812 45.414062 50.015625 45.183594 49.65625 44.089844 C 49.296875 42.996094 49.671875 42.34375 50.140625 41.617188 C 50.140625 41.617188 50.480469 41.136719 51.144531 41.136719 C 51.335938 41.136719 51.550781 41.175781 51.792969 41.273438 C 52.890625 41.726562 53.21875 42.609375 53.054688 44.089844 C 52.917969 45.3125 52.460938 45.417969 52.308594 45.417969 " fill-opacity="1" fill-rule="nonzero"/><path fill="#f59c90" d="M 58.046875 48.425781 C 57.679688 47.773438 57.027344 47.3125 56.371094 46.890625 C 55.785156 46.515625 55.179688 46.261719 54.558594 46.183594 C 55.109375 44.851562 56.164062 44.113281 56.164062 44.113281 C 56.507812 44.023438 56.8125 43.984375 57.089844 43.984375 C 58.859375 43.984375 59.351562 45.585938 59.351562 45.585938 C 59.464844 46.792969 58.285156 48.164062 58.046875 48.425781 " fill-opacity="1" fill-rule="nonzero"/><path fill="#f59c90" d="M 62.324219 51.25 C 60.988281 50.992188 59.015625 49.21875 59.015625 49.21875 L 60.207031 47.011719 C 60.207031 47.011719 60.742188 46.714844 61.445312 46.714844 C 61.753906 46.714844 62.09375 46.773438 62.433594 46.933594 C 63.214844 47.304688 63.742188 48.539062 63.660156 48.839844 C 63.484375 49.480469 62.324219 51.25 62.324219 51.25 " fill-opacity="1" fill-rule="nonzero"/><path fill="#f59c90" d="M 64.804688 53.445312 C 63.703125 53.417969 63.089844 52.882812 62.785156 52.496094 C 63.378906 51.738281 63.976562 50.808594 64.277344 49.878906 C 64.664062 49.886719 65.402344 50.121094 65.542969 51.09375 C 65.71875 52.332031 64.804688 53.445312 64.804688 53.445312 " fill-opacity="1" fill-rule="nonzero"/><path fill="#f59c90" d="M 62.785156 52.496094 C 62.613281 52.269531 62.542969 52.09375 62.542969 52.09375 C 62.542969 52.09375 63.898438 50.019531 64.054688 49.917969 C 64.085938 49.894531 64.160156 49.878906 64.261719 49.878906 C 64.265625 49.878906 64.269531 49.878906 64.277344 49.878906 C 63.976562 50.808594 63.378906 51.738281 62.785156 52.496094 " fill-opacity="1" fill-rule="nonzero"/></g></g></g></svg>