<svg xmlns="http://www.w3.org/2000/svg" xmlns:xlink="http://www.w3.org/1999/xlink" width="250" zoomAndPan="magnify" viewBox="0 0 187.5 187.499992" height="250" preserveAspectRatio="xMidYMid meet" version="1.0"><defs><filter x="0%" y="0%" width="100%" height="100%" id="7706e1a81d"><feColorMatrix values="0 0 0 0 1 0 0 0 0 1 0 0 0 0 1 0 0 0 1 0" color-interpolation-filters="sRGB"/></filter><clipPath id="0302835ade"><path d="M 0 0 L 187 0 L 187 187 L 0 187 Z M 0 0 " clip-rule="nonzero"/></clipPath><clipPath id="7fd04e2fa7"><path d="M 93.5 187 C 68.539062 187 45.03125 177.285156 27.390625 159.609375 C 9.714844 141.96875 0 118.464844 0 93.5 C 0 68.539062 9.714844 45.03125 27.390625 27.390625 C 45.03125 9.714844 68.539062 0 93.5 0 C 118.464844 0 141.96875 9.714844 159.609375 27.390625 C 177.285156 45.070312 187 68.539062 187 93.5 C 187 118.464844 177.285156 141.96875 159.609375 159.609375 C 141.96875 177.285156 118.464844 187 93.5 187 Z M 93.5 5.605469 C 70.03125 5.605469 47.945312 14.761719 31.355469 31.355469 C 14.761719 47.945312 5.605469 70.03125 5.605469 93.5 C 5.605469 116.96875 14.761719 139.054688 31.355469 155.648438 C 47.945312 172.238281 70.03125 181.394531 93.5 181.394531 C 116.96875 181.394531 139.054688 172.238281 155.648438 155.648438 C 172.238281 139.054688 181.394531 116.96875 181.394531 93.5 C 181.394531 70.03125 172.238281 47.945312 155.648438 31.355469 C 139.054688 14.761719 116.96875 5.605469 93.5 5.605469 Z M 93.5 5.605469 " clip-rule="nonzero"/></clipPath><mask id="0d86a3bf0a"><g filter="url(#7706e1a81d)"><rect x="-18.75" width="225" fill="#000000" y="-18.749999" height="224.99999" fill-opacity="0.77"/></g></mask><clipPath id="b5d1898235"><path d="M 0.25 0.363281 L 100.484375 0.363281 L 100.484375 121.175781 L 0.25 121.175781 Z M 0.25 0.363281 " clip-rule="nonzero"/></clipPath><clipPath id="633370ddc7"><rect x="0" width="101" y="0" height="122"/></clipPath></defs><g clip-path="url(#0302835ade)"><g clip-path="url(#7fd04e2fa7)"><path fill="#570a57" d="M 0 0 L 187 0 L 187 187 L 0 187 Z M 0 0 " fill-opacity="1" fill-rule="nonzero"/></g></g><g mask="url(#0d86a3bf0a)"><g transform="matrix(1, 0, 0, 1, 43, 38)"><g clip-path="url(#633370ddc7)"><path fill="#bb5c91" d="M 95.726562 29.226562 L 95.726562 46.441406 C 95.726562 76.539062 78.003906 103.8125 50.5 116.035156 C 23 103.8125 5.273438 76.539062 5.273438 46.441406 L 5.273438 29.226562 C 18.386719 29.226562 29.019531 18.597656 29.019531 5.484375 L 71.984375 5.484375 C 71.984375 18.597656 82.613281 29.226562 95.726562 29.226562 Z M 95.726562 29.226562 " fill-opacity="1" fill-rule="nonzero"/><g clip-path="url(#b5d1898235)"><path fill="#531f55" d="M 95.726562 24.203125 C 85.40625 24.203125 77.007812 15.804688 77.007812 5.484375 C 77.007812 2.707031 74.757812 0.457031 71.984375 0.457031 L 29.019531 0.457031 C 26.242188 0.457031 23.992188 2.707031 23.992188 5.484375 C 23.992188 15.804688 15.597656 24.203125 5.273438 24.203125 C 2.5 24.203125 0.25 26.453125 0.25 29.226562 L 0.25 46.441406 C 0.25 78.492188 19.171875 107.609375 48.460938 120.628906 C 49.757812 121.203125 51.242188 121.203125 52.542969 120.628906 C 81.828125 107.609375 100.75 78.492188 100.75 46.441406 L 100.75 29.226562 C 100.75 26.453125 98.5 24.203125 95.726562 24.203125 Z M 90.703125 46.441406 C 90.703125 73.773438 74.996094 98.671875 50.5 110.496094 C 26.007812 98.671875 10.300781 73.773438 10.300781 46.441406 L 10.300781 33.8125 C 22.144531 31.71875 31.507812 22.351562 33.605469 10.507812 L 67.398438 10.507812 C 69.492188 22.351562 78.855469 31.71875 90.699219 33.8125 L 90.699219 46.441406 Z M 90.703125 46.441406 " fill-opacity="1" fill-rule="nonzero"/></g><path fill="#531f55" d="M 59.007812 47.15625 L 47.484375 58.679688 L 41.992188 53.1875 C 40.03125 51.222656 36.847656 51.222656 34.886719 53.1875 C 32.925781 55.148438 32.925781 58.332031 34.886719 60.292969 L 43.933594 69.339844 C 45.894531 71.300781 49.078125 71.300781 51.039062 69.339844 L 66.113281 54.261719 C 68.078125 52.300781 68.078125 49.117188 66.113281 47.15625 C 64.152344 45.195312 60.96875 45.195312 59.007812 47.15625 Z M 59.007812 47.15625 " fill-opacity="1" fill-rule="nonzero"/></g></g></g></svg>