<svg xmlns="http://www.w3.org/2000/svg" xmlns:xlink="http://www.w3.org/1999/xlink" width="170" zoomAndPan="magnify" viewBox="0 0 127.5 52.499999" height="70" preserveAspectRatio="xMidYMid meet" version="1.0"><defs><g/><clipPath id="8bd15bb15d"><path d="M 3 0 L 51 0 L 51 47.546875 L 3 47.546875 Z M 3 0 " clip-rule="nonzero"/></clipPath></defs><g clip-path="url(#8bd15bb15d)"><path fill="#2a0b62" d="M 14.53125 30.46875 C 13.035156 32.003906 10.699219 29.730469 12.199219 28.1875 C 13.699219 26.652344 16.03125 28.933594 14.53125 30.46875 Z M 48.570312 28.378906 C 47.925781 31.425781 46.625 34.363281 44.667969 36.964844 C 45.976562 38.480469 44.042969 40.648438 42.390625 39.550781 C 40.699219 41.191406 38.804688 42.507812 36.796875 43.5 C 37.476562 46.304688 33.5 47.691406 32.253906 45.121094 C 30.707031 45.5 29.109375 45.714844 27.484375 45.742188 C 26.644531 47.78125 23.632812 47.515625 23.140625 45.390625 C 20.96875 44.992188 18.773438 44.238281 16.859375 43.234375 C 14.984375 44.78125 12.253906 42.96875 12.996094 40.652344 C 10.609375 38.65625 8.691406 36.195312 7.335938 33.425781 C 4.878906 33.878906 3.613281 30.515625 5.789062 29.25 C 5.195312 26.941406 4.96875 24.515625 5.164062 22.0625 C 2.617188 21.277344 3.261719 17.332031 6.023438 17.492188 C 7.328125 13.117188 9.882812 9.445312 13.183594 6.761719 C 11.75 3.957031 15.386719 1.171875 17.707031 3.429688 C 17.820312 3.539062 17.914062 3.65625 18.007812 3.777344 C 21.503906 2.191406 25.425781 1.511719 29.414062 1.945312 C 30.15625 0 33.085938 0.574219 33.042969 2.652344 C 34.097656 2.945312 35.132812 3.324219 36.140625 3.78125 C 37.140625 2.71875 38.859375 3.683594 38.539062 5.046875 C 39.109375 5.398438 39.671875 5.78125 40.21875 6.195312 C 41.527344 7.167969 42.738281 8.304688 43.792969 9.535156 C 44.933594 9.097656 46.015625 10.472656 45.277344 11.476562 C 46.035156 12.597656 46.683594 13.773438 47.214844 14.992188 C 49.121094 14.710938 50.058594 17.332031 48.359375 18.296875 C 48.824219 20.109375 49.054688 21.972656 49.050781 23.835938 C 51.664062 24.4375 51.253906 28.339844 48.570312 28.378906 Z M 43.085938 11.25 C 42.21875 11.359375 41.347656 11.511719 40.488281 11.691406 C 40.527344 12.089844 40.480469 12.496094 40.351562 12.878906 C 42.300781 13.640625 44.199219 14.601562 46.003906 15.753906 L 46.460938 15.296875 C 46.167969 14.628906 45.839844 13.976562 45.484375 13.339844 C 45.214844 12.867188 44.925781 12.402344 44.617188 11.949219 C 44.03125 12.125 43.347656 11.832031 43.085938 11.25 Z M 25.25 21.050781 C 27.8125 21.972656 30.285156 23.234375 32.613281 24.832031 C 32.707031 24.746094 32.8125 24.675781 32.917969 24.617188 C 32.03125 22.175781 30.839844 19.816406 29.339844 17.613281 C 28.875 17.816406 28.332031 17.769531 27.902344 17.472656 C 26.894531 18.238281 25.925781 19.074219 25 19.976562 C 25.199219 20.304688 25.285156 20.679688 25.25 21.050781 Z M 34.894531 11.289062 C 34.941406 11.09375 35.011719 10.894531 35.105469 10.710938 C 32.640625 9.140625 30.011719 7.945312 27.292969 7.121094 C 26.703125 7.914062 26.152344 8.730469 25.644531 9.554688 C 26.035156 9.828125 26.335938 10.226562 26.480469 10.722656 C 29.296875 10.550781 32.125 10.738281 34.894531 11.289062 Z M 34.816406 12.078125 C 32.09375 11.527344 29.320312 11.339844 26.558594 11.511719 C 26.53125 11.878906 26.410156 12.242188 26.199219 12.566406 C 26.929688 13.304688 27.617188 14.066406 28.265625 14.855469 C 28.777344 14.679688 29.378906 14.789062 29.789062 15.199219 C 31.421875 14.171875 33.128906 13.300781 34.882812 12.585938 C 34.84375 12.421875 34.824219 12.25 34.816406 12.078125 Z M 22.253906 12.078125 C 17.148438 13.101562 12.25 15.394531 8.0625 18.933594 C 8.160156 19.175781 8.21875 19.429688 8.234375 19.6875 C 12.78125 18.839844 17.460938 18.957031 21.984375 20.070312 C 22.0625 19.925781 22.15625 19.792969 22.273438 19.675781 C 22.859375 19.078125 23.769531 18.988281 24.445312 19.417969 C 25.390625 18.5 26.375 17.648438 27.398438 16.867188 C 27.171875 16.363281 27.238281 15.753906 27.613281 15.3125 C 27 14.566406 26.347656 13.839844 25.652344 13.140625 C 24.480469 13.992188 22.734375 13.441406 22.253906 12.078125 Z M 33.671875 24.378906 C 33.949219 24.347656 34.226562 24.382812 34.496094 24.472656 C 35.925781 21.375 36.835938 18.097656 37.214844 14.773438 C 36.378906 14.640625 35.578125 14.089844 35.164062 13.324219 C 33.445312 14.019531 31.78125 14.875 30.1875 15.882812 C 30.292969 16.300781 30.214844 16.75 29.960938 17.113281 C 31.519531 19.402344 32.757812 21.84375 33.671875 24.378906 Z M 35.179688 24.875 C 35.367188 25.046875 35.515625 25.246094 35.621094 25.460938 C 37.074219 24.832031 38.484375 24.09375 39.84375 23.242188 C 39.679688 20.363281 39.128906 17.507812 38.1875 14.753906 C 38.128906 14.769531 38.070312 14.777344 38.011719 14.785156 C 37.621094 18.246094 36.679688 21.660156 35.179688 24.875 Z M 35.621094 27.167969 C 36.855469 28.246094 37.988281 29.402344 39.019531 30.613281 C 39.144531 30.558594 39.28125 30.53125 39.417969 30.523438 C 39.789062 28.410156 39.9375 26.277344 39.878906 24.148438 C 38.566406 24.945312 37.210938 25.640625 35.8125 26.238281 C 35.828125 26.558594 35.761719 26.875 35.621094 27.167969 Z M 40.601562 22.753906 C 41.929688 21.867188 43.199219 20.878906 44.398438 19.773438 C 43.019531 17.730469 41.378906 15.808594 39.527344 14.109375 C 39.34375 14.269531 39.144531 14.402344 38.9375 14.507812 C 39.847656 17.183594 40.40625 19.957031 40.601562 22.753906 Z M 44.984375 19.226562 C 45.402344 18.820312 45.816406 18.40625 46.214844 17.972656 C 45.847656 17.59375 45.636719 17.058594 45.71875 16.5 C 43.964844 15.367188 42.125 14.425781 40.230469 13.675781 C 42.027344 15.359375 43.628906 17.234375 44.984375 19.226562 Z M 37.804688 5.980469 C 37.972656 7.039062 38.089844 8.101562 38.152344 9.160156 C 39.089844 9.324219 39.953125 10.023438 40.304688 10.925781 C 41.199219 10.734375 42.097656 10.578125 43 10.464844 C 43.027344 10.320312 43.085938 10.171875 43.171875 10.042969 C 41.738281 8.355469 40.035156 6.898438 38.148438 5.738281 C 38.042969 5.835938 37.929688 5.921875 37.804688 5.980469 Z M 32.699219 3.703125 C 34.230469 5.460938 35.542969 7.339844 36.632812 9.3125 C 36.867188 9.21875 37.109375 9.160156 37.363281 9.136719 C 37.300781 8.125 37.1875 7.121094 37.027344 6.117188 C 36.242188 6.035156 35.667969 5.261719 35.796875 4.492188 C 34.859375 4.066406 33.882812 3.710938 32.867188 3.421875 C 32.816406 3.515625 32.761719 3.613281 32.699219 3.703125 Z M 27.8125 6.453125 C 30.5 7.296875 33.105469 8.5 35.554688 10.054688 L 35.949219 9.695312 C 34.886719 7.773438 33.609375 5.941406 32.125 4.234375 C 31.398438 4.660156 30.53125 4.507812 29.949219 4.011719 Z M 18.390625 4.484375 C 18.449219 4.644531 18.488281 4.808594 18.519531 4.976562 C 21.375 5.015625 24.226562 5.425781 26.996094 6.214844 L 29.460938 3.378906 C 29.367188 3.179688 29.3125 2.96875 29.296875 2.734375 C 25.582031 2.351562 21.832031 2.9375 18.390625 4.484375 Z M 18.289062 6.683594 C 19.886719 7.53125 21.433594 8.519531 22.902344 9.652344 C 23.488281 9.148438 24.253906 9.03125 24.925781 9.21875 C 25.410156 8.425781 25.925781 7.652344 26.484375 6.890625 C 23.886719 6.175781 21.21875 5.804688 18.542969 5.765625 C 18.515625 6.082031 18.425781 6.390625 18.289062 6.683594 Z M 6.820312 17.679688 L 7.632812 18.265625 C 11.917969 14.664062 16.921875 12.339844 22.128906 11.296875 C 22.136719 10.941406 22.230469 10.585938 22.40625 10.265625 C 20.957031 9.148438 19.433594 8.175781 17.851562 7.347656 C 16.753906 8.59375 14.808594 8.632812 13.660156 7.429688 C 10.425781 10.089844 7.972656 13.835938 6.820312 17.679688 Z M 22.125 21.921875 C 21.886719 21.601562 21.773438 21.214844 21.78125 20.828125 C 17.292969 19.730469 12.644531 19.632812 8.136719 20.503906 C 7.839844 21.507812 6.910156 22.125 5.949219 22.164062 C 5.769531 24.492188 5.980469 26.792969 6.539062 28.980469 C 8.96875 28.5625 10.21875 31.871094 8.078125 33.144531 C 9.355469 35.734375 11.144531 38.042969 13.367188 39.929688 C 13.703125 39.472656 14.199219 39.128906 14.816406 39.003906 C 15.515625 32.890625 17.949219 26.929688 22.125 21.921875 Z M 17.585938 40.5625 C 23.683594 38.101562 29.140625 33.539062 32.675781 27.847656 C 31.941406 27.273438 31.730469 26.257812 32.125 25.457031 C 29.871094 23.914062 27.476562 22.695312 24.996094 21.800781 C 24.519531 22.570312 23.503906 22.835938 22.722656 22.433594 C 18.679688 27.285156 16.3125 33.054688 15.609375 38.976562 C 16.488281 39.082031 17.289062 39.722656 17.585938 40.5625 Z M 33.996094 28.257812 C 33.792969 28.269531 33.585938 28.253906 33.386719 28.199219 C 29.738281 34.109375 24.070312 38.832031 17.730469 41.355469 C 17.734375 41.828125 17.609375 42.257812 17.386719 42.617188 C 19.136719 43.515625 21.125 44.199219 23.09375 44.578125 C 23.457031 41.726562 27.746094 42.074219 27.648438 44.949219 C 29.136719 44.910156 30.605469 44.710938 32.03125 44.367188 C 31.894531 43.105469 32.785156 41.808594 34.199219 41.664062 C 35.082031 37.234375 35.011719 32.660156 33.996094 28.257812 Z M 35.136719 41.757812 C 36.859375 38.988281 38.109375 36.011719 38.898438 32.945312 C 38.253906 32.59375 38.035156 31.738281 38.414062 31.125 C 37.417969 29.953125 36.324219 28.839844 35.132812 27.800781 C 35.015625 27.898438 34.890625 27.984375 34.757812 28.054688 C 35.796875 32.542969 35.882812 37.207031 34.996094 41.722656 C 35.042969 41.726562 35.09375 41.742188 35.136719 41.757812 Z M 42.242188 36.761719 C 41.558594 35.480469 40.78125 34.226562 39.914062 33.03125 C 39.835938 33.058594 39.753906 33.078125 39.675781 33.085938 C 38.878906 36.226562 37.601562 39.273438 35.851562 42.109375 L 36.464844 42.757812 C 38.4375 41.777344 40.25 40.5 41.835938 38.957031 C 41.433594 38.246094 41.585938 37.304688 42.242188 36.761719 Z M 47.761719 28.242188 C 46.191406 27.679688 45.71875 25.550781 46.984375 24.386719 C 46.375 23.042969 45.660156 21.722656 44.839844 20.445312 C 43.519531 21.648438 42.117188 22.722656 40.652344 23.667969 C 40.753906 26.019531 40.597656 28.382812 40.1875 30.714844 C 40.820312 31.105469 40.988281 31.980469 40.550781 32.570312 C 41.445312 33.804688 42.246094 35.089844 42.949219 36.414062 C 43.296875 36.332031 43.664062 36.359375 44 36.496094 C 45.769531 34.140625 47.113281 31.246094 47.761719 28.242188 Z M 48.242188 23.800781 C 48.242188 22 48.011719 20.230469 47.578125 18.527344 C 47.332031 18.539062 47.09375 18.503906 46.878906 18.417969 C 46.410156 18.929688 45.921875 19.421875 45.429688 19.898438 C 46.277344 21.210938 47.023438 22.570312 47.65625 23.957031 C 47.847656 23.878906 48.042969 23.824219 48.242188 23.800781 Z M 44.261719 29.777344 C 43.175781 29.472656 42.71875 31.132812 43.804688 31.433594 C 44.886719 31.734375 45.347656 30.078125 44.261719 29.777344 Z M 27.882812 28.777344 C 29.285156 29 29.625 26.863281 28.222656 26.640625 C 26.820312 26.417969 26.480469 28.554688 27.882812 28.777344 Z M 28.074219 37.78125 C 26.300781 37.292969 25.546875 40 27.328125 40.488281 C 29.101562 40.980469 29.851562 38.273438 28.074219 37.78125 Z M 19.742188 14.753906 C 18.246094 14.339844 17.613281 16.625 19.109375 17.039062 C 20.605469 17.449219 21.234375 15.167969 19.742188 14.753906 Z M 19.742188 14.753906 " fill-opacity="1" fill-rule="nonzero"/></g><g fill="#2a0b62" fill-opacity="1"><g transform="translate(61.867922, 15.14039)"><g><path d="M 4.636719 -4.375 L 4.636719 -2.984375 L 7.152344 -2.984375 C 6.84375 -2.121094 5.894531 -1.546875 4.816406 -1.546875 C 3.308594 -1.546875 2.3125 -2.625 2.3125 -4.183594 C 2.3125 -5.753906 3.332031 -6.832031 4.816406 -6.832031 C 5.871094 -6.832031 6.757812 -6.265625 7.117188 -5.367188 L 8.988281 -5.367188 C 8.59375 -7.25 6.867188 -8.566406 4.78125 -8.566406 C 2.300781 -8.566406 0.46875 -6.6875 0.46875 -4.183594 C 0.46875 -1.664062 2.347656 0.191406 4.816406 0.191406 C 7.332031 0.191406 9.09375 -1.75 9.09375 -4.375 Z M 4.636719 -4.375 "/></g></g></g><g fill="#2a0b62" fill-opacity="1"><g transform="translate(71.415685, 15.14039)"><g><path d="M 0.839844 0 L 2.589844 0 L 2.589844 -8.796875 L 0.839844 -8.796875 Z M 0.839844 0 "/></g></g></g><g fill="#2a0b62" fill-opacity="1"><g transform="translate(74.84186, 15.14039)"><g><path d="M 3.90625 0.191406 C 5.90625 0.191406 7.40625 -1.28125 7.40625 -3.234375 C 7.40625 -5.1875 5.90625 -6.652344 3.90625 -6.652344 C 1.90625 -6.652344 0.40625 -5.1875 0.40625 -3.234375 C 0.40625 -1.28125 1.90625 0.191406 3.90625 0.191406 Z M 3.90625 -1.460938 C 2.898438 -1.460938 2.179688 -2.179688 2.179688 -3.234375 C 2.179688 -4.277344 2.898438 -5.007812 3.90625 -5.007812 C 4.914062 -5.007812 5.632812 -4.277344 5.632812 -3.234375 C 5.632812 -2.179688 4.914062 -1.460938 3.90625 -1.460938 Z M 3.90625 -1.460938 "/></g></g></g><g fill="#2a0b62" fill-opacity="1"><g transform="translate(82.664559, 15.14039)"><g><path d="M 4.363281 -6.652344 C 3.691406 -6.652344 3.078125 -6.460938 2.589844 -6.113281 L 2.589844 -8.796875 L 0.839844 -8.796875 L 0.839844 0.0117188 L 2.121094 0.0117188 L 2.335938 -0.539062 C 2.875 -0.0703125 3.570312 0.191406 4.363281 0.191406 C 6.328125 0.191406 7.765625 -1.269531 7.765625 -3.222656 C 7.765625 -5.1875 6.328125 -6.652344 4.363281 -6.652344 Z M 4.21875 -1.460938 C 3.199219 -1.460938 2.457031 -2.230469 2.457031 -3.234375 C 2.457031 -4.242188 3.199219 -5.007812 4.21875 -5.007812 C 5.238281 -5.007812 5.980469 -4.242188 5.980469 -3.234375 C 5.980469 -2.230469 5.238281 -1.460938 4.21875 -1.460938 Z M 4.21875 -1.460938 "/></g></g></g><g fill="#2a0b62" fill-opacity="1"><g transform="translate(90.846647, 15.14039)"><g><path d="M 6.113281 -6.472656 L 5.933594 -5.859375 C 5.367188 -6.351562 4.636719 -6.652344 3.796875 -6.652344 C 1.859375 -6.652344 0.40625 -5.1875 0.40625 -3.234375 C 0.40625 -1.28125 1.859375 0.191406 3.796875 0.191406 C 4.625 0.191406 5.34375 -0.0976562 5.894531 -0.585938 L 6.050781 0 L 7.417969 0 L 7.417969 -6.472656 Z M 3.941406 -1.460938 C 2.925781 -1.460938 2.179688 -2.230469 2.179688 -3.234375 C 2.179688 -4.253906 2.925781 -5.007812 3.941406 -5.007812 C 4.960938 -5.007812 5.703125 -4.253906 5.703125 -3.234375 C 5.703125 -2.21875 4.960938 -1.460938 3.941406 -1.460938 Z M 3.941406 -1.460938 "/></g></g></g><g fill="#2a0b62" fill-opacity="1"><g transform="translate(99.112589, 15.14039)"><g><path d="M 0.839844 0 L 2.589844 0 L 2.589844 -8.796875 L 0.839844 -8.796875 Z M 0.839844 0 "/></g></g></g><g fill="#2a0b62" fill-opacity="1"><g transform="translate(61.867922, 26.284257)"><g><path d="M 5.574219 0 L 7.597656 0 L 5.738281 -3.164062 C 6.675781 -3.617188 7.273438 -4.503906 7.273438 -5.609375 C 7.273438 -7.226562 6.015625 -8.386719 4.339844 -8.386719 L 0.957031 -8.386719 L 0.957031 0 L 2.769531 0 L 2.769531 -2.851562 L 3.929688 -2.851562 Z M 2.769531 -6.710938 L 4.21875 -6.710938 C 4.984375 -6.710938 5.429688 -6.242188 5.429688 -5.621094 C 5.429688 -4.984375 4.984375 -4.53125 4.21875 -4.53125 L 2.769531 -4.53125 Z M 2.769531 -6.710938 "/></g></g></g><g fill="#2a0b62" fill-opacity="1"><g transform="translate(69.786457, 26.284257)"><g><path d="M 7.117188 -3.246094 C 7.117188 -5.117188 5.753906 -6.652344 3.761719 -6.652344 C 1.84375 -6.652344 0.40625 -5.175781 0.40625 -3.234375 C 0.40625 -1.292969 1.859375 0.191406 3.761719 0.191406 C 5.273438 0.191406 6.507812 -0.707031 6.972656 -2.121094 L 5.140625 -2.121094 C 4.878906 -1.652344 4.375 -1.367188 3.761719 -1.367188 C 2.910156 -1.367188 2.335938 -1.859375 2.179688 -2.746094 L 7.082031 -2.746094 C 7.105469 -2.910156 7.117188 -3.078125 7.117188 -3.246094 Z M 3.761719 -5.152344 C 4.554688 -5.152344 5.117188 -4.722656 5.367188 -3.929688 L 2.230469 -3.929688 C 2.433594 -4.699219 2.984375 -5.152344 3.761719 -5.152344 Z M 3.761719 -5.152344 "/></g></g></g><g fill="#2a0b62" fill-opacity="1"><g transform="translate(77.309667, 26.284257)"><g><path d="M 3.128906 0.191406 C 4.769531 0.191406 5.847656 -0.671875 5.847656 -1.988281 C 5.847656 -3.570312 4.492188 -3.785156 3.4375 -3.976562 C 2.769531 -4.097656 2.21875 -4.207031 2.21875 -4.636719 C 2.21875 -5.007812 2.539062 -5.25 3.078125 -5.25 C 3.691406 -5.25 4.050781 -4.996094 4.0625 -4.480469 L 5.726562 -4.480469 C 5.714844 -5.777344 4.683594 -6.652344 3.128906 -6.652344 C 1.570312 -6.652344 0.527344 -5.800781 0.527344 -4.578125 C 0.527344 -3.054688 1.84375 -2.78125 2.875 -2.601562 C 3.558594 -2.492188 4.121094 -2.359375 4.121094 -1.917969 C 4.121094 -1.484375 3.679688 -1.257812 3.199219 -1.257812 C 2.578125 -1.257812 2.132812 -1.546875 2.121094 -2.121094 L 0.417969 -2.121094 C 0.417969 -0.742188 1.511719 0.191406 3.128906 0.191406 Z M 3.128906 0.191406 "/></g></g></g><g fill="#2a0b62" fill-opacity="1"><g transform="translate(83.598973, 26.284257)"><g><path d="M 7.117188 -3.246094 C 7.117188 -5.117188 5.753906 -6.652344 3.761719 -6.652344 C 1.84375 -6.652344 0.40625 -5.175781 0.40625 -3.234375 C 0.40625 -1.292969 1.859375 0.191406 3.761719 0.191406 C 5.273438 0.191406 6.507812 -0.707031 6.972656 -2.121094 L 5.140625 -2.121094 C 4.878906 -1.652344 4.375 -1.367188 3.761719 -1.367188 C 2.910156 -1.367188 2.335938 -1.859375 2.179688 -2.746094 L 7.082031 -2.746094 C 7.105469 -2.910156 7.117188 -3.078125 7.117188 -3.246094 Z M 3.761719 -5.152344 C 4.554688 -5.152344 5.117188 -4.722656 5.367188 -3.929688 L 2.230469 -3.929688 C 2.433594 -4.699219 2.984375 -5.152344 3.761719 -5.152344 Z M 3.761719 -5.152344 "/></g></g></g><g fill="#2a0b62" fill-opacity="1"><g transform="translate(91.122183, 26.284257)"><g><path d="M 6.113281 -6.472656 L 5.933594 -5.859375 C 5.367188 -6.351562 4.636719 -6.652344 3.796875 -6.652344 C 1.859375 -6.652344 0.40625 -5.1875 0.40625 -3.234375 C 0.40625 -1.28125 1.859375 0.191406 3.796875 0.191406 C 4.625 0.191406 5.34375 -0.0976562 5.894531 -0.585938 L 6.050781 0 L 7.417969 0 L 7.417969 -6.472656 Z M 3.941406 -1.460938 C 2.925781 -1.460938 2.179688 -2.230469 2.179688 -3.234375 C 2.179688 -4.253906 2.925781 -5.007812 3.941406 -5.007812 C 4.960938 -5.007812 5.703125 -4.253906 5.703125 -3.234375 C 5.703125 -2.21875 4.960938 -1.460938 3.941406 -1.460938 Z M 3.941406 -1.460938 "/></g></g></g><g fill="#2a0b62" fill-opacity="1"><g transform="translate(99.388125, 26.284257)"><g><path d="M 4.144531 -6.507812 C 3.308594 -6.507812 2.730469 -6.242188 2.265625 -5.667969 L 1.953125 -6.472656 L 0.839844 -6.472656 L 0.839844 0 L 2.589844 0 L 2.589844 -3.355469 C 2.589844 -4.410156 2.972656 -4.851562 3.953125 -4.851562 L 4.722656 -4.851562 L 4.722656 -6.507812 Z M 4.144531 -6.507812 "/></g></g></g><g fill="#2a0b62" fill-opacity="1"><g transform="translate(104.263839, 26.284257)"><g><path d="M 3.847656 0.191406 C 5.535156 0.191406 6.867188 -0.910156 7.167969 -2.539062 L 5.40625 -2.539062 C 5.105469 -1.84375 4.554688 -1.460938 3.847656 -1.460938 C 2.910156 -1.460938 2.179688 -2.242188 2.179688 -3.234375 C 2.179688 -4.242188 2.898438 -5.007812 3.847656 -5.007812 C 4.542969 -5.007812 5.128906 -4.625 5.40625 -3.992188 L 7.140625 -3.992188 C 6.832031 -5.585938 5.535156 -6.652344 3.859375 -6.652344 C 1.894531 -6.652344 0.40625 -5.1875 0.40625 -3.246094 C 0.40625 -1.304688 1.894531 0.191406 3.847656 0.191406 Z M 3.847656 0.191406 "/></g></g></g><g fill="#2a0b62" fill-opacity="1"><g transform="translate(111.751113, 26.284257)"><g><path d="M 4.542969 -6.613281 C 3.761719 -6.613281 3.078125 -6.328125 2.589844 -5.859375 L 2.589844 -8.796875 L 0.839844 -8.796875 L 0.839844 0 L 2.589844 0 L 2.589844 -3.390625 C 2.589844 -4.445312 3.164062 -5.082031 4.039062 -5.082031 C 4.816406 -5.082031 5.164062 -4.601562 5.164062 -3.632812 L 5.164062 0 L 6.914062 0 L 6.914062 -3.929688 C 6.914062 -5.574219 6.003906 -6.613281 4.542969 -6.613281 Z M 4.542969 -6.613281 "/></g></g></g><path stroke-linecap="butt" transform="matrix(0, -0.742924, 0.742924, 0, 54.961967, 43.113885)" fill="none" stroke-linejoin="miter" d="M 0.000813196 1.502384 L 51.754686 1.502384 " stroke="#2a0b62" stroke-width="3" stroke-opacity="1" stroke-miterlimit="4"/><g fill="#2a0b62" fill-opacity="1"><g transform="translate(62.610846, 34.914225)"><g><path d="M 2.367188 -4.789062 L 0.648438 -4.789062 L 0.648438 0 L 1.25 0 L 1.25 -1.71875 L 2.367188 -1.71875 C 3.277344 -1.71875 3.953125 -2.375 3.953125 -3.25 C 3.953125 -4.132812 3.269531 -4.789062 2.367188 -4.789062 Z M 2.339844 -2.296875 L 1.25 -2.296875 L 1.25 -4.207031 L 2.339844 -4.207031 C 2.921875 -4.207031 3.34375 -3.796875 3.34375 -3.25 C 3.34375 -2.703125 2.921875 -2.296875 2.339844 -2.296875 Z M 2.339844 -2.296875 "/></g></g></g><g fill="#2a0b62" fill-opacity="1"><g transform="translate(66.78267, 34.914225)"><g><path d="M 2.15625 0.0820312 C 3.160156 0.0820312 3.796875 -0.5625 3.796875 -1.554688 L 3.796875 -3.695312 L 3.214844 -3.695312 L 3.214844 -1.648438 C 3.214844 -0.929688 2.816406 -0.480469 2.15625 -0.480469 C 1.503906 -0.480469 1.101562 -0.921875 1.101562 -1.648438 L 1.101562 -3.695312 L 0.519531 -3.695312 L 0.519531 -1.554688 C 0.519531 -0.5625 1.164062 0.0820312 2.15625 0.0820312 Z M 2.15625 0.0820312 "/></g></g></g><g fill="#2a0b62" fill-opacity="1"><g transform="translate(71.104955, 34.914225)"><g><path d="M 2.53125 -3.769531 C 1.984375 -3.769531 1.503906 -3.5625 1.164062 -3.222656 L 1.164062 -5.007812 L 0.582031 -5.007812 L 0.582031 0 L 1.03125 0 L 1.113281 -0.519531 C 1.457031 -0.144531 1.957031 0.0820312 2.53125 0.0820312 C 3.644531 0.0820312 4.441406 -0.746094 4.441406 -1.847656 C 4.441406 -2.949219 3.644531 -3.769531 2.53125 -3.769531 Z M 2.488281 -0.480469 C 1.703125 -0.480469 1.128906 -1.074219 1.128906 -1.847656 C 1.128906 -2.621094 1.703125 -3.207031 2.488281 -3.207031 C 3.269531 -3.207031 3.84375 -2.625 3.84375 -1.847656 C 3.84375 -1.058594 3.269531 -0.480469 2.488281 -0.480469 Z M 2.488281 -0.480469 "/></g></g></g><g fill="#2a0b62" fill-opacity="1"><g transform="translate(75.837583, 34.914225)"><g><path d="M 0.582031 0 L 1.164062 0 L 1.164062 -5.007812 L 0.582031 -5.007812 Z M 0.582031 0 "/></g></g></g><g fill="#2a0b62" fill-opacity="1"><g transform="translate(77.588381, 34.914225)"><g><path d="M 0.5625 -4.328125 L 1.191406 -4.328125 L 1.191406 -4.992188 L 0.5625 -4.992188 Z M 0.582031 0 L 1.164062 0 L 1.164062 -3.695312 L 0.582031 -3.695312 Z M 0.582031 0 "/></g></g></g><g fill="#2a0b62" fill-opacity="1"><g transform="translate(79.33918, 34.914225)"><g><path d="M 2.210938 0.0820312 C 3.085938 0.0820312 3.789062 -0.445312 4.015625 -1.257812 L 3.425781 -1.257812 C 3.203125 -0.765625 2.75 -0.480469 2.210938 -0.480469 C 1.457031 -0.480469 0.882812 -1.074219 0.882812 -1.847656 C 0.882812 -2.613281 1.449219 -3.207031 2.210938 -3.207031 C 2.757812 -3.207031 3.214844 -2.921875 3.425781 -2.441406 L 4.007812 -2.441406 C 3.78125 -3.25 3.09375 -3.769531 2.210938 -3.769531 C 1.113281 -3.769531 0.289062 -2.949219 0.289062 -1.847656 C 0.289062 -0.746094 1.113281 0.0820312 2.210938 0.0820312 Z M 2.210938 0.0820312 "/></g></g></g><g fill="#2a0b62" fill-opacity="1"><g transform="translate(83.579396, 34.914225)"><g/></g></g><g fill="#2a0b62" fill-opacity="1"><g transform="translate(85.37123, 34.914225)"><g><path d="M 3.726562 -4.789062 L 3.726562 -2.75 L 1.25 -2.75 L 1.25 -4.789062 L 0.648438 -4.789062 L 0.648438 0 L 1.25 0 L 1.25 -2.175781 L 3.726562 -2.175781 L 3.726562 0 L 4.328125 0 L 4.328125 -4.789062 Z M 3.726562 -4.789062 "/></g></g></g><g fill="#2a0b62" fill-opacity="1"><g transform="translate(90.3569, 34.914225)"><g><path d="M 4.035156 -1.828125 C 4.035156 -2.90625 3.296875 -3.769531 2.175781 -3.769531 C 1.101562 -3.769531 0.292969 -2.941406 0.292969 -1.847656 C 0.292969 -0.746094 1.101562 0.0820312 2.175781 0.0820312 C 2.976562 0.0820312 3.625 -0.363281 3.941406 -1.121094 L 3.324219 -1.121094 C 3.097656 -0.726562 2.6875 -0.484375 2.175781 -0.484375 C 1.476562 -0.484375 0.964844 -0.9375 0.875 -1.621094 L 4.023438 -1.621094 C 4.027344 -1.691406 4.035156 -1.757812 4.035156 -1.828125 Z M 2.175781 -3.222656 C 2.832031 -3.222656 3.332031 -2.8125 3.453125 -2.15625 L 0.890625 -2.15625 C 1.003906 -2.796875 1.503906 -3.222656 2.175781 -3.222656 Z M 2.175781 -3.222656 "/></g></g></g><g fill="#2a0b62" fill-opacity="1"><g transform="translate(94.679186, 34.914225)"><g><path d="M 3.734375 -3.695312 L 3.660156 -3.125 C 3.316406 -3.53125 2.804688 -3.769531 2.203125 -3.769531 C 1.109375 -3.769531 0.289062 -2.949219 0.289062 -1.839844 C 0.289062 -0.746094 1.109375 0.0820312 2.203125 0.0820312 C 2.804688 0.0820312 3.3125 -0.15625 3.652344 -0.554688 L 3.714844 0 L 4.191406 0 L 4.191406 -3.695312 Z M 2.242188 -0.480469 C 1.464844 -0.480469 0.882812 -1.066406 0.882812 -1.847656 C 0.882812 -2.621094 1.464844 -3.207031 2.242188 -3.207031 C 3.03125 -3.207031 3.597656 -2.625 3.597656 -1.847656 C 3.597656 -1.058594 3.03125 -0.480469 2.242188 -0.480469 Z M 2.242188 -0.480469 "/></g></g></g><g fill="#2a0b62" fill-opacity="1"><g transform="translate(99.459688, 34.914225)"><g><path d="M 0.582031 0 L 1.164062 0 L 1.164062 -5.007812 L 0.582031 -5.007812 Z M 0.582031 0 "/></g></g></g><g fill="#2a0b62" fill-opacity="1"><g transform="translate(101.210487, 34.914225)"><g><path d="M 2.113281 -0.535156 C 1.609375 -0.535156 1.332031 -0.808594 1.332031 -1.304688 L 1.332031 -3.167969 L 2.496094 -3.167969 L 2.496094 -3.695312 L 1.332031 -3.695312 L 1.332031 -4.472656 L 1.246094 -4.472656 L 0.101562 -3.269531 L 0.101562 -3.167969 L 0.753906 -3.167969 L 0.753906 -1.285156 C 0.753906 -0.484375 1.246094 0 2.039062 0 L 2.515625 0 L 2.515625 -0.535156 Z M 2.113281 -0.535156 "/></g></g></g><g fill="#2a0b62" fill-opacity="1"><g transform="translate(103.918754, 34.914225)"><g><path d="M 2.429688 -3.769531 C 1.894531 -3.769531 1.449219 -3.550781 1.164062 -3.1875 L 1.164062 -5.007812 L 0.582031 -5.007812 L 0.582031 0 L 1.164062 0 L 1.164062 -2.011719 C 1.164062 -2.703125 1.648438 -3.242188 2.285156 -3.242188 C 2.921875 -3.242188 3.277344 -2.816406 3.277344 -2.074219 L 3.277344 0 L 3.859375 0 L 3.859375 -2.210938 C 3.859375 -3.167969 3.3125 -3.769531 2.429688 -3.769531 Z M 2.429688 -3.769531 "/></g></g></g><g fill="#2a0b62" fill-opacity="1"><g transform="translate(62.610846, 41.667895)"><g><path d="M 1.25 -0.574219 L 1.25 -2.183594 L 3.179688 -2.183594 L 3.179688 -2.734375 L 1.25 -2.734375 L 1.25 -4.214844 L 3.359375 -4.214844 L 3.359375 -4.789062 L 0.648438 -4.789062 L 0.648438 0 L 3.433594 0 L 3.433594 -0.574219 Z M 1.25 -0.574219 "/></g></g></g><g fill="#2a0b62" fill-opacity="1"><g transform="translate(66.392846, 41.667895)"><g><path d="M 2.542969 -3.769531 C 1.949219 -3.769531 1.441406 -3.53125 1.101562 -3.125 L 0.984375 -3.695312 L 0.582031 -3.695312 L 0.582031 1.320312 L 1.164062 1.320312 L 1.164062 -0.492188 C 1.503906 -0.128906 1.992188 0.0820312 2.542969 0.0820312 C 3.644531 0.0820312 4.441406 -0.746094 4.441406 -1.847656 C 4.441406 -2.949219 3.644531 -3.769531 2.542969 -3.769531 Z M 2.503906 -0.480469 C 1.71875 -0.480469 1.140625 -1.066406 1.140625 -1.847656 C 1.140625 -2.621094 1.71875 -3.207031 2.503906 -3.207031 C 3.285156 -3.207031 3.859375 -2.625 3.859375 -1.847656 C 3.859375 -1.058594 3.285156 -0.480469 2.503906 -0.480469 Z M 2.503906 -0.480469 "/></g></g></g><g fill="#2a0b62" fill-opacity="1"><g transform="translate(71.132314, 41.667895)"><g><path d="M 0.5625 -4.328125 L 1.191406 -4.328125 L 1.191406 -4.992188 L 0.5625 -4.992188 Z M 0.582031 0 L 1.164062 0 L 1.164062 -3.695312 L 0.582031 -3.695312 Z M 0.582031 0 "/></g></g></g><g fill="#2a0b62" fill-opacity="1"><g transform="translate(72.883112, 41.667895)"><g><path d="M 3.5625 -5.007812 L 3.5625 -3.222656 C 3.222656 -3.5625 2.742188 -3.769531 2.195312 -3.769531 C 1.085938 -3.769531 0.289062 -2.949219 0.289062 -1.839844 C 0.289062 -0.746094 1.085938 0.0820312 2.195312 0.0820312 C 2.777344 0.0820312 3.277344 -0.144531 3.617188 -0.519531 L 3.695312 0.0078125 L 4.144531 0.0078125 L 4.144531 -5.007812 Z M 2.238281 -0.480469 C 1.457031 -0.480469 0.882812 -1.058594 0.882812 -1.839844 C 0.882812 -2.625 1.457031 -3.207031 2.238281 -3.207031 C 3.023438 -3.207031 3.597656 -2.621094 3.597656 -1.839844 C 3.597656 -1.066406 3.023438 -0.480469 2.238281 -0.480469 Z M 2.238281 -0.480469 "/></g></g></g><g fill="#2a0b62" fill-opacity="1"><g transform="translate(77.615739, 41.667895)"><g><path d="M 4.035156 -1.828125 C 4.035156 -2.90625 3.296875 -3.769531 2.175781 -3.769531 C 1.101562 -3.769531 0.292969 -2.941406 0.292969 -1.847656 C 0.292969 -0.746094 1.101562 0.0820312 2.175781 0.0820312 C 2.976562 0.0820312 3.625 -0.363281 3.941406 -1.121094 L 3.324219 -1.121094 C 3.097656 -0.726562 2.6875 -0.484375 2.175781 -0.484375 C 1.476562 -0.484375 0.964844 -0.9375 0.875 -1.621094 L 4.023438 -1.621094 C 4.027344 -1.691406 4.035156 -1.757812 4.035156 -1.828125 Z M 2.175781 -3.222656 C 2.832031 -3.222656 3.332031 -2.8125 3.453125 -2.15625 L 0.890625 -2.15625 C 1.003906 -2.796875 1.503906 -3.222656 2.175781 -3.222656 Z M 2.175781 -3.222656 "/></g></g></g><g fill="#2a0b62" fill-opacity="1"><g transform="translate(81.938025, 41.667895)"><g><path d="M 4.664062 -3.769531 C 4.160156 -3.769531 3.6875 -3.503906 3.414062 -3.070312 C 3.207031 -3.503906 2.804688 -3.769531 2.277344 -3.769531 C 1.8125 -3.769531 1.382812 -3.550781 1.09375 -3.179688 L 1 -3.695312 L 0.582031 -3.695312 L 0.582031 0 L 1.164062 0 L 1.164062 -2.046875 C 1.164062 -2.722656 1.609375 -3.242188 2.148438 -3.242188 C 2.679688 -3.242188 2.988281 -2.84375 2.988281 -2.175781 L 2.988281 0 L 3.5625 0 L 3.5625 -2.046875 C 3.5625 -2.722656 4.007812 -3.242188 4.550781 -3.242188 C 5.074219 -3.242188 5.382812 -2.84375 5.382812 -2.175781 L 5.382812 0 L 5.964844 0 L 5.964844 -2.359375 C 5.964844 -3.1875 5.445312 -3.769531 4.664062 -3.769531 Z M 4.664062 -3.769531 "/></g></g></g><g fill="#2a0b62" fill-opacity="1"><g transform="translate(88.435127, 41.667895)"><g><path d="M 0.5625 -4.328125 L 1.191406 -4.328125 L 1.191406 -4.992188 L 0.5625 -4.992188 Z M 0.582031 0 L 1.164062 0 L 1.164062 -3.695312 L 0.582031 -3.695312 Z M 0.582031 0 "/></g></g></g><g fill="#2a0b62" fill-opacity="1"><g transform="translate(90.185926, 41.667895)"><g><path d="M 2.25 0.0820312 C 3.367188 0.0820312 4.207031 -0.738281 4.207031 -1.847656 C 4.207031 -2.949219 3.367188 -3.769531 2.25 -3.769531 C 1.128906 -3.769531 0.289062 -2.957031 0.289062 -1.847656 C 0.289062 -0.738281 1.128906 0.0820312 2.25 0.0820312 Z M 2.25 -0.480469 C 1.457031 -0.480469 0.882812 -1.054688 0.882812 -1.847656 C 0.882812 -2.632812 1.457031 -3.207031 2.25 -3.207031 C 3.039062 -3.207031 3.613281 -2.632812 3.613281 -1.839844 C 3.613281 -1.054688 3.039062 -0.480469 2.25 -0.480469 Z M 2.25 -0.480469 "/></g></g></g><g fill="#2a0b62" fill-opacity="1"><g transform="translate(94.692863, 41.667895)"><g><path d="M 0.582031 0 L 1.164062 0 L 1.164062 -5.007812 L 0.582031 -5.007812 Z M 0.582031 0 "/></g></g></g><g fill="#2a0b62" fill-opacity="1"><g transform="translate(96.443661, 41.667895)"><g><path d="M 2.25 0.0820312 C 3.367188 0.0820312 4.207031 -0.738281 4.207031 -1.847656 C 4.207031 -2.949219 3.367188 -3.769531 2.25 -3.769531 C 1.128906 -3.769531 0.289062 -2.957031 0.289062 -1.847656 C 0.289062 -0.738281 1.128906 0.0820312 2.25 0.0820312 Z M 2.25 -0.480469 C 1.457031 -0.480469 0.882812 -1.054688 0.882812 -1.847656 C 0.882812 -2.632812 1.457031 -3.207031 2.25 -3.207031 C 3.039062 -3.207031 3.613281 -2.632812 3.613281 -1.839844 C 3.613281 -1.054688 3.039062 -0.480469 2.25 -0.480469 Z M 2.25 -0.480469 "/></g></g></g><g fill="#2a0b62" fill-opacity="1"><g transform="translate(100.950598, 41.667895)"><g><path d="M 3.632812 -3.695312 L 3.542969 -3.121094 C 3.207031 -3.523438 2.703125 -3.769531 2.105469 -3.769531 C 1.082031 -3.769531 0.292969 -2.96875 0.292969 -1.941406 C 0.292969 -0.910156 1.082031 -0.117188 2.105469 -0.117188 C 2.652344 -0.117188 3.125 -0.320312 3.453125 -0.664062 L 3.453125 -0.4375 C 3.453125 0.382812 2.949219 0.867188 2.210938 0.867188 C 1.675781 0.867188 1.210938 0.609375 1.046875 0.152344 L 0.464844 0.152344 C 0.664062 0.929688 1.304688 1.402344 2.210938 1.402344 C 3.339844 1.402344 4.023438 0.675781 4.023438 -0.511719 L 4.023438 -3.6875 Z M 2.167969 -0.671875 C 1.429688 -0.671875 0.882812 -1.21875 0.882812 -1.941406 C 0.882812 -2.667969 1.429688 -3.214844 2.167969 -3.214844 C 2.90625 -3.214844 3.449219 -2.675781 3.449219 -1.941406 C 3.449219 -1.210938 2.914062 -0.671875 2.167969 -0.671875 Z M 2.167969 -0.671875 "/></g></g></g><g fill="#2a0b62" fill-opacity="1"><g transform="translate(105.560121, 41.667895)"><g><path d="M 3.285156 -3.695312 L 2.046875 -0.894531 L 0.730469 -3.695312 L 0.101562 -3.695312 L 1.746094 -0.246094 L 1.613281 0.0273438 C 1.3125 0.644531 1.140625 0.792969 0.644531 0.792969 L 0.347656 0.792969 L 0.347656 1.320312 L 0.699219 1.320312 C 1.394531 1.320312 1.746094 1.03125 2.140625 0.15625 L 3.90625 -3.695312 Z M 3.285156 -3.695312 "/></g></g></g></svg>