<svg xmlns="http://www.w3.org/2000/svg" xmlns:xlink="http://www.w3.org/1999/xlink" width="250" zoomAndPan="magnify" viewBox="0 0 187.5 187.499992" height="250" preserveAspectRatio="xMidYMid meet" version="1.0"><defs><filter x="0%" y="0%" width="100%" height="100%" id="f15ea87631"><feColorMatrix values="0 0 0 0 1 0 0 0 0 1 0 0 0 0 1 0 0 0 1 0" color-interpolation-filters="sRGB"/></filter><clipPath id="f43a7d93c6"><path d="M 0 0 L 187 0 L 187 187 L 0 187 Z M 0 0 " clip-rule="nonzero"/></clipPath><clipPath id="b252c4de65"><path d="M 93.5 187 C 68.539062 187 45.03125 177.285156 27.390625 159.609375 C 9.714844 141.96875 0 118.464844 0 93.5 C 0 68.539062 9.714844 45.03125 27.390625 27.390625 C 45.03125 9.714844 68.539062 0 93.5 0 C 118.464844 0 141.96875 9.714844 159.609375 27.390625 C 177.285156 45.070312 187 68.539062 187 93.5 C 187 118.464844 177.285156 141.96875 159.609375 159.609375 C 141.96875 177.285156 118.464844 187 93.5 187 Z M 93.5 5.605469 C 70.03125 5.605469 47.945312 14.761719 31.355469 31.355469 C 14.761719 47.945312 5.605469 70.03125 5.605469 93.5 C 5.605469 116.96875 14.761719 139.054688 31.355469 155.648438 C 47.945312 172.238281 70.03125 181.394531 93.5 181.394531 C 116.96875 181.394531 139.054688 172.238281 155.648438 155.648438 C 172.238281 139.054688 181.394531 116.96875 181.394531 93.5 C 181.394531 70.03125 172.238281 47.945312 155.648438 31.355469 C 139.054688 14.761719 116.96875 5.605469 93.5 5.605469 Z M 93.5 5.605469 " clip-rule="nonzero"/></clipPath><mask id="1d11b54e36"><g filter="url(#f15ea87631)"><rect x="-18.75" width="225" fill="#000000" y="-18.749999" height="224.99999" fill-opacity="0.8"/></g></mask><clipPath id="eaf752ae4e"><rect x="0" width="107" y="0" height="136"/></clipPath></defs><g clip-path="url(#f43a7d93c6)"><g clip-path="url(#b252c4de65)"><path fill="#570a57" d="M 0 0 L 187 0 L 187 187 L 0 187 Z M 0 0 " fill-opacity="1" fill-rule="nonzero"/></g></g><g mask="url(#1d11b54e36)"><g transform="matrix(1, 0, 0, 1, 40, 26)"><g clip-path="url(#eaf752ae4e)"><path fill="#19223b" d="M 97.722656 58.824219 C 101.65625 60.902344 104.449219 63.960938 105.671875 68.234375 C 106.300781 70.390625 105.867188 72.664062 105.511719 74.820312 C 104.921875 78.386719 104.292969 81.953125 103.546875 85.484375 C 102.601562 89.914062 101.777344 94.34375 100.988281 98.8125 C 99.847656 105.082031 98.628906 111.316406 97.371094 117.550781 C 96.738281 120.726562 95.835938 123.742188 93.671875 126.214844 C 91.074219 129.230469 87.808594 131.230469 83.757812 131.464844 C 76.402344 131.9375 69.046875 131.386719 61.6875 131.464844 C 48.273438 131.582031 34.898438 131.503906 21.484375 131.464844 C 20.265625 131.464844 19.359375 132.132812 18.335938 132.5625 C 15.191406 133.894531 12.042969 134.25 8.855469 132.878906 C 4.488281 131.035156 2.011719 127.585938 1.144531 123 C 0.832031 121.390625 1.183594 119.746094 1.34375 118.136719 C 1.65625 115.433594 1.972656 112.765625 2.285156 110.0625 C 2.5625 107.671875 2.875 105.28125 3.152344 102.886719 C 3.507812 99.949219 3.898438 97.007812 4.253906 94.066406 C 4.648438 91.167969 5 88.226562 5.394531 85.324219 C 5.667969 83.089844 5.90625 80.816406 6.261719 78.582031 C 6.890625 74.546875 7.007812 70.429688 8.265625 66.507812 C 9.5625 62.511719 12.160156 59.609375 16.253906 58.199219 C 16.960938 58.160156 17.550781 58.277344 18.140625 58.785156 C 18.847656 59.335938 19.792969 59.414062 20.699219 59.53125 C 21.328125 59.609375 21.128906 59.21875 20.933594 58.902344 C 20.65625 58.394531 20.777344 58.003906 21.328125 57.804688 C 22.46875 57.414062 25.183594 58.785156 25.535156 59.960938 C 25.652344 60.394531 25.734375 60.863281 25.339844 61.136719 C 24.828125 61.492188 24.945312 61.804688 25.339844 62.15625 C 26.324219 63.097656 27.1875 64.15625 27.9375 65.292969 C 28.132812 65.566406 28.328125 65.84375 28.644531 65.960938 C 29.507812 66.273438 29.667969 66.902344 29.667969 67.761719 C 29.707031 69.917969 29.941406 72.113281 30.21875 74.269531 C 30.335938 75.328125 31.082031 76.269531 32.183594 76.742188 C 32.5 76.859375 32.851562 76.976562 32.972656 77.328125 C 33.285156 78.230469 33.992188 78.269531 34.742188 78.230469 C 36 78.152344 37.179688 78.308594 38.359375 78.820312 C 39.109375 79.171875 39.539062 79.640625 39.539062 80.464844 C 39.539062 81.25 39.777344 82.03125 39.738281 82.855469 C 39.738281 83.289062 39.894531 83.523438 40.367188 83.601562 C 42.292969 83.953125 42.726562 84.425781 42.925781 86.382812 C 42.964844 86.816406 43.003906 87.246094 42.925781 87.679688 C 42.882812 87.914062 42.84375 88.1875 43.003906 88.34375 C 43.984375 89.207031 43.710938 90.460938 43.867188 91.519531 C 43.984375 92.421875 44.144531 93.363281 44.066406 94.304688 C 44.066406 94.5 44.066406 94.695312 44.183594 94.890625 C 44.890625 96.105469 45.207031 97.398438 45.167969 98.773438 C 45.167969 99.085938 45.324219 98.65625 45.402344 98.8125 C 46.070312 100.183594 46.03125 101.632812 46.1875 103.085938 C 46.03125 103.59375 45.519531 103.671875 45.128906 103.867188 C 44.417969 104.140625 43.75 104.496094 43.082031 104.769531 C 42.292969 105.003906 41.585938 104.691406 40.839844 104.613281 C 36.433594 103.4375 32.027344 102.261719 27.738281 100.730469 C 25.851562 100.066406 25.8125 100.105469 25.457031 102.027344 C 25.300781 102.886719 24.828125 103.710938 25.101562 104.613281 C 25.496094 104.808594 25.890625 104.730469 26.285156 104.730469 C 31.160156 104.730469 36.078125 104.730469 40.957031 104.730469 C 51.617188 104.730469 62.316406 104.730469 72.980469 104.730469 C 74.433594 104.730469 74.472656 104.691406 74.789062 103.203125 C 75.0625 101.828125 75.300781 100.457031 75.613281 99.125 C 76.285156 96.300781 76.753906 93.441406 77.347656 90.578125 C 77.503906 89.753906 76.835938 90.34375 76.597656 90.226562 C 75.8125 90.109375 75.105469 90.5 74.394531 90.734375 C 73.921875 90.890625 73.53125 91.207031 72.980469 91.089844 C 72.859375 91.050781 72.742188 91.050781 72.664062 91.246094 C 72.429688 91.675781 71.957031 91.910156 71.5625 92.027344 C 69.832031 92.421875 68.257812 93.324219 66.605469 93.949219 C 65.703125 94.304688 64.914062 94.851562 63.890625 94.8125 C 63.5 94.8125 63.105469 94.734375 62.710938 94.617188 C 62.4375 94.539062 62.199219 94.421875 62.199219 94.105469 C 62.199219 93.753906 62.476562 93.597656 62.789062 93.519531 C 63.261719 93.402344 63.773438 93.285156 64.207031 92.734375 C 63.773438 92.929688 63.460938 93.085938 63.105469 93.046875 C 61.609375 92.96875 61.296875 92.617188 61.257812 91.089844 C 61.257812 89.832031 61.175781 88.578125 62.003906 87.480469 C 62.4375 86.933594 62.554688 86.1875 62.199219 85.484375 C 62.082031 85.285156 62.082031 85.011719 62.160156 84.816406 C 62.238281 84.503906 62.398438 84.265625 62.710938 84.148438 C 63.066406 84.070312 63.144531 84.347656 63.300781 84.582031 C 63.378906 84.738281 63.417969 84.894531 63.65625 84.972656 C 64.011719 84.542969 63.96875 84.03125 64.089844 83.523438 C 64.285156 82.542969 64.519531 82.386719 65.503906 82.425781 C 66.371094 82.464844 67.234375 82.503906 68.101562 82.347656 C 68.535156 82.269531 69.007812 82.308594 69.203125 82.777344 C 69.4375 83.289062 69.085938 83.601562 68.691406 83.835938 C 67.984375 84.265625 67.90625 84.816406 68.335938 85.601562 C 68.769531 84.894531 69.242188 84.304688 69.675781 83.640625 C 69.871094 83.328125 69.949219 83.011719 69.832031 82.621094 C 69.597656 81.875 69.988281 81.289062 70.777344 81.367188 C 71.40625 81.40625 71.5625 81.132812 71.640625 80.660156 C 71.71875 80.269531 71.917969 79.914062 72.230469 79.640625 C 73.253906 78.898438 74.003906 77.839844 74.867188 76.9375 C 75.261719 76.503906 75.457031 76.074219 75.457031 75.484375 C 75.457031 74.9375 75.457031 74.429688 75.457031 73.878906 C 75.574219 69.214844 77.304688 65.175781 80.492188 61.804688 C 80.53125 61.765625 80.570312 61.6875 80.652344 61.6875 C 82.144531 61.097656 83.128906 59.726562 84.546875 59.023438 C 85.253906 58.667969 85.882812 58.199219 86.667969 57.964844 C 87.613281 57.726562 88.480469 58.042969 88.832031 58.824219 C 89.460938 58.394531 90.050781 57.886719 90.800781 57.726562 C 91.195312 57.648438 91.625 57.570312 91.941406 57.886719 C 92.253906 58.199219 92.136719 58.550781 91.863281 58.863281 C 91.664062 59.101562 91.863281 59.21875 92.058594 59.296875 C 92.492188 59.414062 92.925781 59.492188 93.316406 59.296875 C 94.027344 58.941406 94.578125 59.140625 95.128906 59.648438 C 95.992188 60.394531 95.992188 60.394531 96.820312 59.492188 C 97.09375 59.140625 97.332031 58.824219 97.722656 58.824219 Z M 97.722656 58.824219 " fill-opacity="1" fill-rule="nonzero"/><path fill="#fadcbd" d="M 43.515625 51.652344 C 43.476562 51.613281 43.433594 51.613281 43.433594 51.574219 C 43.945312 48.867188 41.546875 47.574219 40.40625 45.691406 C 39.460938 44.085938 38.714844 42.4375 38.320312 40.636719 C 38.164062 39.96875 38.046875 39.539062 37.140625 39.65625 C 34.820312 39.929688 33.011719 38.714844 31.515625 37.148438 C 29.195312 34.714844 28.605469 31.738281 28.996094 28.523438 C 29.15625 27.191406 29.941406 26.132812 31.121094 25.464844 C 31.515625 25.269531 31.75 24.996094 31.75 24.5625 C 31.988281 24.5625 32.222656 24.640625 32.421875 24.523438 C 33.5625 23.9375 34.664062 24.015625 35.765625 24.601562 C 36.15625 24.796875 36.394531 24.757812 36.628906 24.289062 C 37.769531 21.820312 38.675781 19.3125 38.519531 16.527344 C 38.519531 16.253906 38.480469 15.9375 38.753906 15.820312 C 39.03125 15.703125 39.265625 15.9375 39.460938 16.097656 C 42.253906 18.449219 45.441406 19.9375 48.902344 20.917969 C 52.484375 21.9375 56.140625 22.367188 59.878906 21.9375 C 60.351562 21.898438 60.824219 21.859375 61.257812 22.015625 C 61.609375 22.210938 61.53125 22.445312 61.257812 22.601562 C 60.667969 23.035156 60.625 23.621094 60.585938 24.289062 C 60.429688 27.933594 60.625 31.582031 60.625 35.226562 C 60.625 36.753906 60.941406 38.246094 61.335938 39.734375 C 61.964844 42.046875 62.316406 44.398438 62.160156 46.828125 C 62.082031 47.730469 61.808594 48.671875 61.609375 49.535156 C 61.492188 50.042969 61.453125 50.515625 61.609375 50.984375 C 60.980469 51.886719 59.957031 52.121094 59.015625 52.515625 C 56.652344 53.453125 54.253906 53.101562 51.855469 52.828125 C 49.652344 52.59375 47.683594 51.613281 45.636719 50.789062 C 45.246094 50.632812 44.96875 50.28125 44.578125 50.082031 C 44.144531 49.886719 43.867188 49.964844 43.828125 50.476562 C 43.789062 50.867188 43.90625 51.339844 43.515625 51.652344 Z M 43.515625 51.652344 " fill-opacity="1" fill-rule="nonzero"/><path fill="#19223b" d="M 61.058594 22.09375 C 57.402344 22.5625 53.742188 22.40625 50.164062 21.503906 C 46.109375 20.527344 42.375 18.878906 39.1875 16.175781 C 39.070312 16.097656 38.949219 15.976562 38.714844 15.820312 C 39.1875 19.3125 37.847656 22.25 36.550781 25.191406 C 35.214844 24.484375 33.796875 23.859375 32.261719 24.917969 C 31.832031 25.230469 32.027344 24.5625 31.75 24.523438 C 31.199219 22.523438 31.242188 20.449219 31.359375 18.410156 C 31.515625 15.9375 32.066406 13.507812 33.207031 11.3125 C 33.992188 9.746094 35.332031 8.921875 37.140625 9 C 37.730469 9.039062 38.007812 8.84375 38.320312 8.375 C 40.957031 4.414062 44.578125 2.023438 49.335938 1.433594 C 57.242188 0.453125 64.519531 2.140625 70.894531 7 C 74.316406 9.628906 76.558594 13.117188 77.1875 17.507812 C 77.542969 20.015625 77.503906 22.523438 76.953125 24.996094 C 76.835938 25.542969 76.441406 25.464844 76.125 25.308594 C 74.511719 24.5625 72.941406 24.796875 71.445312 25.621094 C 70.777344 25.976562 70.421875 25.738281 70.109375 25.113281 C 69.476562 23.859375 69.085938 22.523438 68.496094 21.269531 C 68.023438 20.25 68.023438 20.289062 66.921875 20.683594 C 64.953125 21.347656 63.105469 22.054688 61.058594 22.09375 Z M 61.058594 22.09375 " fill-opacity="1" fill-rule="nonzero"/><path fill="#d5eaf8" d="M 65.152344 52.828125 C 66.804688 52.945312 68.179688 53.453125 69.125 54.90625 C 69.359375 55.257812 69.558594 55.648438 69.636719 56.082031 C 69.792969 56.707031 69.4375 57.023438 68.808594 56.945312 C 68.613281 56.90625 68.414062 56.828125 68.21875 56.828125 C 66.761719 56.667969 66.09375 56.984375 66.015625 58.355469 C 65.9375 59.335938 65.464844 60.277344 65.542969 61.257812 C 65.542969 61.53125 65.503906 61.804688 65.703125 62 C 66.054688 62.433594 65.859375 62.902344 65.78125 63.332031 C 64.601562 70.46875 63.261719 77.5625 62.121094 84.699219 C 61.609375 87.992188 61.21875 91.285156 60.785156 94.617188 C 60.707031 95.242188 60.625 95.871094 60.351562 96.460938 C 59.722656 97.398438 58.542969 97.597656 57.675781 98.261719 C 57.480469 98.417969 57.164062 98.339844 56.929688 98.183594 C 56.730469 97.832031 57.046875 97.714844 57.203125 97.476562 C 57.753906 97.085938 57.714844 96.539062 57.597656 95.949219 C 56.652344 89.875 55.984375 83.757812 54.921875 77.722656 C 54.371094 74.664062 55.121094 72.191406 56.730469 69.761719 C 56.96875 69.410156 57.242188 69.058594 57.320312 68.507812 C 56.691406 68.46875 56.140625 68.664062 55.589844 68.820312 C 53.546875 69.488281 51.539062 69.410156 49.53125 68.703125 C 49.453125 68.664062 49.335938 68.625 49.257812 68.625 C 48.941406 68.546875 48.550781 68.351562 48.3125 68.625 C 48.039062 68.941406 48.429688 69.214844 48.589844 69.488281 C 49.179688 70.664062 49.808594 71.839844 50.515625 72.976562 C 50.792969 73.449219 50.988281 73.917969 50.871094 74.507812 C 50.203125 78.230469 50.003906 82.03125 49.414062 85.757812 C 49.101562 87.640625 48.941406 89.519531 48.667969 91.363281 C 48.628906 91.636719 48.589844 91.871094 48.390625 92.109375 C 47.800781 92.34375 47.761719 92.027344 47.839844 91.597656 C 47.644531 92.109375 47.878906 92.65625 47.800781 93.207031 C 47.761719 93.480469 47.800781 93.792969 47.527344 93.910156 C 47.210938 94.027344 47.09375 93.675781 46.898438 93.519531 C 46.699219 93.324219 46.621094 93.007812 46.347656 92.773438 C 46.148438 93.207031 46.269531 93.636719 46.1875 94.027344 C 46.03125 94.851562 45.679688 95.085938 44.8125 94.96875 C 44.300781 94.421875 44.378906 93.714844 44.300781 93.085938 C 43.515625 87.089844 42.804688 81.054688 41.742188 75.09375 C 41.390625 72.976562 41.191406 70.820312 40.917969 68.664062 C 40.878906 68.429688 40.878906 68.195312 40.957031 67.960938 C 41.3125 67.292969 41.863281 67.253906 42.492188 67.488281 C 43.277344 67.804688 44.066406 68.039062 44.890625 68.117188 C 45.285156 68.15625 45.441406 68.15625 45.597656 67.644531 C 45.875 66.824219 45.796875 66.078125 45.679688 65.214844 C 45.285156 62.316406 44.339844 59.53125 43.789062 56.707031 C 43.710938 56.238281 43.476562 55.925781 43.082031 55.691406 C 42.804688 55.53125 42.492188 55.296875 42.648438 54.90625 C 42.765625 54.550781 43.121094 54.433594 43.476562 54.433594 C 44.339844 54.394531 45.085938 54.828125 45.757812 55.335938 C 46.148438 55.609375 46.503906 56.003906 47.054688 56.003906 C 47.921875 56.082031 48.628906 56.550781 49.296875 57.0625 C 50.398438 57.886719 51.695312 58.355469 52.875 59.023438 C 53.230469 59.21875 53.546875 59.140625 53.898438 58.984375 C 57.363281 57.296875 60.746094 55.53125 63.929688 53.375 C 64.324219 53.0625 64.679688 52.789062 65.152344 52.828125 Z M 65.152344 52.828125 " fill-opacity="1" fill-rule="nonzero"/><path fill="#19223b" d="M 60.117188 96.460938 C 60.625 94.929688 60.746094 93.363281 60.941406 91.792969 C 61.375 88.617188 61.726562 85.445312 62.238281 82.269531 C 63.144531 76.582031 64.167969 70.9375 65.113281 65.292969 C 65.308594 64.195312 65.503906 63.097656 65.664062 62 C 65.742188 60.589844 66.253906 59.257812 66.332031 57.84375 C 66.332031 57.453125 66.605469 57.179688 67.117188 57.179688 C 75.417969 57.21875 83.71875 57.140625 92.019531 57.21875 C 94.027344 57.21875 95.914062 57.925781 97.722656 58.824219 C 97.289062 59.21875 96.820312 59.609375 96.621094 60.199219 C 96.425781 60.746094 96.148438 60.746094 95.757812 60.355469 C 95.519531 60.082031 95.167969 59.921875 94.890625 59.6875 C 94.457031 59.257812 94.105469 59.101562 93.515625 59.453125 C 92.726562 59.882812 91.980469 59.53125 91.273438 59.179688 C 91.273438 59.101562 91.3125 59.023438 91.3125 58.941406 C 91.429688 58.589844 92.214844 58.628906 91.941406 58.082031 C 91.625 57.492188 91.113281 57.886719 90.683594 57.964844 C 90.132812 58.082031 89.738281 58.394531 89.34375 58.785156 C 89.03125 59.0625 88.714844 59.296875 88.28125 59.140625 C 88.046875 58.785156 88.949219 58.589844 88.480469 58.355469 C 88.007812 58.121094 87.339844 57.964844 86.867188 58.160156 C 85.765625 58.550781 84.503906 58.941406 83.796875 59.726562 C 82.972656 60.667969 81.832031 60.980469 80.964844 61.726562 C 80.058594 62.511719 79.234375 63.492188 78.605469 64.511719 C 77.503906 66.234375 76.875 68.15625 76.246094 70.15625 C 75.65625 72.035156 75.8125 73.878906 75.734375 75.722656 C 75.695312 76.152344 75.613281 76.542969 75.339844 76.820312 C 74.316406 77.800781 73.609375 79.09375 72.351562 79.835938 C 71.996094 80.035156 72.035156 80.464844 71.917969 80.777344 C 71.757812 81.210938 71.800781 82.152344 70.816406 81.484375 C 70.578125 81.328125 69.714844 82.070312 69.910156 82.230469 C 70.816406 82.933594 70.066406 83.484375 69.792969 83.992188 C 69.359375 84.738281 68.847656 85.402344 68.296875 86.1875 C 68.179688 85.875 68.140625 85.601562 67.984375 85.363281 C 67.550781 84.621094 67.667969 84.070312 68.457031 83.640625 C 68.769531 83.484375 69.320312 83.328125 69.046875 82.777344 C 68.808594 82.347656 68.375 82.464844 67.984375 82.542969 C 67.117188 82.777344 66.253906 82.738281 65.386719 82.621094 C 64.5625 82.503906 64.363281 82.816406 64.324219 83.484375 C 64.285156 83.914062 64.207031 84.347656 64.128906 84.738281 C 64.089844 85.011719 64.011719 85.363281 63.65625 85.402344 C 63.261719 85.445312 63.183594 85.128906 63.144531 84.777344 C 63.105469 84.542969 63.027344 84.347656 62.828125 84.148438 C 62.316406 84.347656 62.160156 84.894531 62.398438 85.207031 C 63.105469 86.148438 62.59375 87.050781 62.121094 87.679688 C 61.492188 88.539062 61.53125 89.402344 61.53125 90.304688 C 61.53125 90.617188 61.492188 90.890625 61.53125 91.207031 C 61.609375 91.597656 61.21875 92.226562 61.925781 92.382812 C 62.632812 92.539062 63.339844 93.125 64.050781 92.34375 C 64.207031 92.1875 64.324219 91.910156 64.601562 92.148438 C 64.796875 92.304688 64.601562 92.5 64.519531 92.695312 C 64.246094 93.363281 63.65625 93.558594 62.988281 93.636719 C 62.75 93.675781 62.476562 93.675781 62.4375 93.949219 C 62.398438 94.304688 62.75 94.34375 62.988281 94.382812 C 64.050781 94.460938 65.191406 94.773438 66.054688 93.792969 C 66.332031 93.519531 66.722656 93.792969 67 93.636719 C 68.574219 92.460938 70.660156 92.460938 72.191406 91.402344 C 73.332031 90.617188 74.75 90.65625 75.929688 89.992188 C 76.046875 89.914062 76.363281 89.753906 76.558594 90.070312 C 76.597656 90.5 76.246094 90.539062 75.96875 90.617188 C 71.089844 92.539062 66.253906 94.617188 61.375 96.5 C 60.980469 96.695312 60.46875 97.164062 60.117188 96.460938 Z M 60.117188 96.460938 " fill-opacity="1" fill-rule="nonzero"/><path fill="#f6bdaf" d="M 61.058594 22.09375 C 63.261719 21.425781 65.582031 21.074219 67.628906 19.9375 C 68.101562 19.664062 68.101562 20.09375 68.21875 20.289062 C 68.964844 21.464844 69.242188 22.878906 69.871094 24.09375 C 70.148438 24.601562 70.382812 25.152344 70.617188 25.699219 C 72.46875 24.601562 74.316406 23.976562 76.363281 25.113281 C 76.675781 25.269531 76.753906 25.074219 76.914062 24.957031 C 77.070312 25.503906 77.542969 25.777344 77.898438 26.171875 C 79.507812 27.972656 79.980469 30.128906 79.550781 32.402344 C 79.234375 34.128906 78.917969 35.972656 77.660156 37.34375 C 76.085938 39.066406 74.238281 40.324219 71.757812 39.929688 C 70.933594 39.8125 71.167969 40.324219 71.128906 40.714844 C 70.894531 43.339844 69.714844 45.535156 67.90625 47.417969 C 67.472656 46.949219 67.90625 46.554688 68.101562 46.164062 C 68.375 45.613281 69.007812 45.183594 69.125 44.59375 C 69.359375 43.617188 69.398438 42.597656 69.871094 41.617188 C 69.359375 41.539062 69.28125 41.851562 69.203125 42.046875 C 68.847656 42.871094 68.140625 43.417969 67.589844 44.046875 C 67.273438 44.398438 66.84375 44.4375 66.410156 44.398438 C 65.425781 44.28125 64.601562 44.476562 64.363281 45.613281 C 64.285156 45.890625 64.128906 46.242188 63.8125 46.242188 C 63.261719 46.242188 63.300781 45.613281 62.910156 45.300781 C 62.554688 45.890625 62.515625 46.515625 62.710938 47.105469 C 63.027344 47.96875 62.988281 48.867188 63.066406 49.769531 C 63.144531 50.867188 62.710938 51.179688 61.570312 50.945312 C 61.21875 50.515625 61.175781 50.121094 61.335938 49.535156 C 61.886719 47.300781 62.199219 45.105469 61.648438 42.753906 C 60.625 38.246094 60.15625 33.699219 60.3125 29.03125 C 60.390625 27.386719 60.46875 25.699219 60.390625 24.015625 C 60.351562 23.230469 60.351562 22.484375 61.375 22.210938 C 61.375 22.25 61.175781 22.171875 61.058594 22.09375 Z M 61.058594 22.09375 " fill-opacity="1" fill-rule="nonzero"/><path fill="#19223b" d="M 41.191406 67.761719 C 41.625 71.761719 42.136719 75.761719 42.84375 79.71875 C 43.277344 82.03125 43.476562 84.386719 43.789062 86.699219 C 44.105469 88.933594 44.378906 91.128906 44.734375 93.363281 C 44.8125 93.871094 44.578125 94.421875 45.007812 94.890625 C 45.402344 96.183594 45.835938 97.4375 45.402344 98.8125 C 45.363281 98.890625 45.324219 99.164062 45.246094 99.046875 C 45.085938 98.773438 44.851562 98.417969 44.890625 98.144531 C 45.085938 97.242188 44.851562 96.460938 44.339844 95.792969 C 43.632812 94.851562 44.027344 93.792969 43.789062 92.773438 C 43.632812 92.027344 43.632812 91.207031 43.554688 90.421875 C 43.476562 89.753906 43.632812 89.011719 42.84375 88.617188 C 42.726562 88.578125 42.609375 88.304688 42.609375 88.1875 C 42.882812 87.011719 42.570312 85.992188 42.253906 84.855469 C 42.058594 84.03125 41.703125 83.953125 41.113281 83.875 C 40.839844 83.835938 40.523438 83.835938 40.210938 83.875 C 39.699219 83.914062 39.421875 83.71875 39.5 83.207031 C 39.621094 82.191406 39.265625 81.25 39.304688 80.269531 C 39.34375 79.679688 38.949219 79.367188 38.480469 79.132812 C 37.296875 78.621094 36.078125 78.386719 34.820312 78.503906 C 33.992188 78.542969 32.933594 78.820312 32.8125 77.40625 C 32.8125 77.289062 32.578125 77.171875 32.460938 77.132812 C 30.648438 76.464844 30.097656 75.09375 29.863281 73.289062 C 29.707031 71.917969 30.058594 70.46875 29.390625 69.136719 C 29.15625 68.664062 29.429688 68 29.46875 67.410156 C 29.507812 67.136719 29.628906 66.707031 29.3125 66.625 C 28.015625 66.3125 27.621094 65.136719 26.914062 64.234375 C 26.242188 63.414062 25.496094 62.667969 24.75 61.921875 C 24.550781 61.726562 24.199219 61.492188 24.671875 61.257812 C 25.023438 61.097656 25.535156 61.097656 25.496094 60.550781 C 25.417969 60 25.339844 59.257812 24.828125 59.0625 C 23.84375 58.667969 22.941406 58.042969 21.796875 58.003906 C 21.523438 58.003906 21.246094 57.964844 21.089844 58.277344 C 20.933594 58.628906 21.167969 58.785156 21.367188 58.902344 C 21.679688 59.101562 21.71875 59.335938 21.5625 59.648438 C 21.367188 60 21.128906 59.960938 20.816406 59.84375 C 19.675781 59.453125 18.296875 59.6875 17.433594 58.472656 C 17.195312 58.160156 16.644531 58.511719 16.332031 58.199219 C 18.21875 57.6875 20.148438 57.179688 22.113281 57.179688 C 27.777344 57.179688 33.441406 57.179688 39.109375 57.179688 C 40.011719 56.867188 40.011719 57.609375 40.089844 58.082031 C 40.25 59.375 40.367188 60.628906 40.5625 61.921875 C 40.800781 63.53125 40.996094 65.136719 41.273438 66.707031 C 41.351562 67.097656 41.429688 67.449219 41.191406 67.761719 Z M 41.191406 67.761719 " fill-opacity="1" fill-rule="nonzero"/><path fill="#f5b2ab" d="M 61.53125 51.023438 C 62.554688 50.984375 63.027344 50.554688 62.789062 49.417969 C 62.632812 48.710938 62.710938 48.007812 62.4375 47.300781 C 62.160156 46.4375 62.316406 45.535156 62.949219 44.59375 C 63.222656 45.183594 63.460938 45.652344 63.65625 46.125 C 64.050781 46.046875 64.050781 45.730469 64.128906 45.457031 C 64.601562 44.164062 64.992188 43.929688 66.410156 44.164062 C 66.761719 44.242188 67.15625 44.242188 67.3125 43.96875 C 67.863281 43.144531 68.847656 42.675781 69.085938 41.617188 C 69.164062 41.222656 69.359375 40.871094 69.832031 41.105469 C 70.265625 41.300781 70.148438 41.617188 70.027344 42.046875 C 69.558594 43.8125 69.125 45.535156 67.90625 46.988281 C 67.824219 47.066406 67.90625 47.261719 67.90625 47.378906 C 67.863281 47.417969 67.785156 47.457031 67.746094 47.457031 C 66.449219 47.457031 65.9375 48.359375 65.542969 49.339844 C 65.230469 49.691406 64.914062 50.003906 65.191406 50.554688 C 65.191406 51.257812 65.152344 52.003906 65.152344 52.710938 C 61.847656 54.90625 58.464844 56.984375 54.804688 58.589844 C 54.488281 58.707031 54.214844 58.902344 53.9375 59.101562 C 53.507812 59.375 53.152344 59.296875 52.679688 59.0625 C 50.871094 58.238281 49.257812 57.140625 47.527344 56.160156 C 47.410156 56.082031 47.25 56.121094 47.132812 56.121094 C 46.03125 55.453125 44.929688 54.789062 43.90625 54.003906 C 43.515625 53.691406 43.121094 53.335938 43.515625 52.75 C 43.515625 52.355469 43.515625 51.964844 43.515625 51.574219 C 43.515625 51.023438 43.554688 50.515625 43.515625 49.964844 C 43.515625 49.378906 43.75 49.261719 44.261719 49.496094 C 44.457031 49.574219 44.65625 49.613281 44.8125 49.730469 C 47.566406 51.417969 50.515625 52.277344 53.78125 52.59375 C 56.652344 53.023438 59.09375 52.238281 61.53125 51.023438 Z M 61.53125 51.023438 " fill-opacity="1" fill-rule="nonzero"/><path fill="#e6f3fa" d="M 43.554688 52.828125 C 43.59375 53.296875 43.828125 53.574219 44.183594 53.925781 C 45.085938 54.789062 46.347656 55.21875 47.171875 56.199219 C 46.542969 56.277344 46.148438 55.886719 45.71875 55.53125 C 45.046875 55.023438 44.378906 54.59375 43.476562 54.632812 C 43.199219 54.632812 42.925781 54.632812 42.84375 54.984375 C 42.765625 55.296875 43.042969 55.375 43.277344 55.414062 C 43.945312 55.53125 44.027344 56.082031 44.144531 56.589844 C 44.535156 57.964844 44.695312 59.414062 45.207031 60.785156 C 45.636719 62 45.757812 63.414062 45.914062 64.746094 C 45.953125 65.214844 46.03125 65.648438 46.1875 66.078125 C 46.308594 66.390625 46.425781 66.746094 46.148438 67.019531 C 45.636719 67.449219 45.757812 67.921875 46.109375 68.390625 C 44.8125 68.429688 43.632812 68.273438 42.570312 67.722656 C 42.058594 67.488281 41.664062 67.527344 41.191406 67.761719 C 40.5625 64.46875 40.132812 61.136719 39.777344 57.765625 C 39.738281 57.257812 39.539062 57.179688 39.148438 57.179688 C 39.109375 57.140625 39.070312 57.0625 38.988281 57.0625 C 37.574219 56.746094 37.574219 56.628906 38.085938 55.257812 C 38.636719 53.808594 40.640625 52.789062 41.980469 53.023438 C 42.332031 53.101562 42.609375 53.257812 42.804688 52.710938 C 43.003906 52.238281 43.316406 52.789062 43.554688 52.828125 Z M 43.554688 52.828125 " fill-opacity="1" fill-rule="nonzero"/><path fill="#f6bdaf" d="M 65.542969 49.457031 C 65.464844 48.007812 66.132812 47.457031 67.945312 47.457031 C 67.273438 48.28125 66.605469 49.066406 65.542969 49.457031 Z M 65.542969 49.457031 " fill-opacity="1" fill-rule="nonzero"/><path fill="#f6bdaf" d="M 65.191406 50.671875 C 64.875 50.632812 64.71875 50.203125 64.757812 50.203125 C 65.269531 50.203125 64.914062 49.261719 65.542969 49.496094 C 65.425781 49.847656 65.308594 50.242188 65.191406 50.671875 Z M 65.191406 50.671875 " fill-opacity="1" fill-rule="nonzero"/><path fill="#faddbf" d="M 60.117188 96.460938 C 60.234375 96.734375 60.351562 96.617188 60.585938 96.539062 C 64.953125 94.734375 69.359375 92.96875 73.726562 91.207031 C 74.671875 90.8125 75.613281 90.460938 76.558594 90.070312 C 76.992188 90.226562 77.386719 89.246094 77.855469 89.992188 C 77.898438 90.070312 78.09375 90.070312 78.015625 90.265625 C 76.914062 92.851562 76.875 95.714844 76.125 98.417969 C 76.085938 98.574219 76.007812 98.734375 75.929688 98.851562 C 75.773438 98.8125 75.65625 98.734375 75.613281 98.574219 C 75.535156 98.261719 75.8125 97.871094 75.457031 97.636719 C 75.144531 97.4375 74.828125 97.753906 74.554688 97.910156 C 71.484375 99.832031 68.179688 101.320312 65.152344 103.320312 C 64.363281 103.828125 63.695312 104.535156 62.789062 104.886719 C 61.375 104.886719 59.917969 104.886719 58.503906 104.886719 C 57.402344 104.457031 56.339844 104.140625 55.121094 104.378906 C 54.84375 104.417969 54.570312 104.378906 54.371094 104.222656 C 53.152344 103.398438 51.894531 102.613281 51.734375 100.890625 C 52.285156 100.105469 53.152344 99.753906 53.976562 99.515625 C 55 99.203125 55.828125 98.695312 56.613281 97.988281 C 56.691406 97.949219 56.8125 97.949219 56.890625 97.988281 C 57.402344 98.066406 57.832031 97.949219 58.1875 97.558594 C 58.738281 97.046875 59.605469 97.046875 60.117188 96.460938 Z M 60.117188 96.460938 " fill-opacity="1" fill-rule="nonzero"/><path fill="#f9dec6" d="M 24.710938 104.808594 C 24.984375 103.28125 25.261719 101.789062 25.535156 100.261719 C 25.652344 99.671875 25.929688 99.949219 26.246094 100.027344 C 29.589844 101.046875 32.933594 102.066406 36.277344 103.085938 C 37.808594 103.554688 39.421875 103.789062 40.917969 104.417969 C 40.761719 104.808594 40.445312 104.925781 40.050781 104.925781 C 38.597656 104.847656 37.140625 105.042969 35.6875 104.808594 C 35.136719 104.730469 34.503906 104.925781 33.914062 104.925781 C 31.160156 104.886719 28.40625 104.925781 25.652344 104.925781 C 25.378906 104.925781 25.023438 105.003906 24.710938 104.808594 Z M 24.710938 104.808594 " fill-opacity="1" fill-rule="nonzero"/><path fill="#f9e8d0" d="M 51.933594 100.890625 C 52.050781 102.457031 54.136719 104.140625 55.710938 104.101562 C 56.574219 104.0625 57.636719 103.90625 58.304688 104.847656 C 58.1875 104.925781 58.070312 104.964844 57.953125 104.964844 C 54.214844 104.925781 50.4375 105.003906 46.699219 104.925781 C 45.757812 104.886719 44.773438 104.964844 43.828125 104.964844 C 43.554688 104.964844 43.199219 105.121094 43.082031 104.691406 C 44.027344 104.023438 45.128906 103.789062 46.109375 103.242188 C 46.464844 102.925781 46.976562 103.125 47.328125 102.808594 C 47.449219 102.691406 47.605469 102.574219 47.722656 102.457031 C 47.800781 102.417969 47.878906 102.339844 47.960938 102.300781 C 48.429688 102.066406 48.902344 101.828125 49.375 101.59375 C 49.453125 101.554688 49.53125 101.515625 49.613281 101.476562 C 50.003906 101.359375 50.320312 101.085938 50.753906 101.046875 C 51.183594 101.125 51.539062 100.535156 51.933594 100.890625 Z M 51.933594 100.890625 " fill-opacity="1" fill-rule="nonzero"/><path fill="#d5eaf8" d="M 47.566406 102.847656 C 47.25 103.554688 46.621094 103.125 46.148438 103.242188 C 45.71875 101.789062 45.875 100.261719 45.363281 98.8125 C 45.285156 97.515625 44.890625 96.222656 44.96875 94.890625 C 45.636719 94.8125 45.953125 94.421875 45.953125 93.792969 C 45.953125 93.402344 45.953125 93.007812 45.953125 92.617188 C 45.953125 92.34375 46.03125 92.148438 46.347656 92.148438 C 46.582031 92.148438 46.738281 92.265625 46.738281 92.5 C 46.699219 93.085938 47.25 93.285156 47.449219 93.988281 C 47.683594 92.929688 47.328125 92.070312 47.839844 91.324219 C 48.117188 91.519531 47.761719 92.109375 48.351562 92.109375 C 48.785156 92.851562 48.472656 93.558594 48.234375 94.265625 C 47.605469 94.929688 47.878906 95.675781 47.960938 96.460938 C 47.921875 97.714844 47.488281 98.929688 47.410156 100.183594 C 47.171875 100.890625 47.328125 101.671875 47.171875 102.378906 C 47.015625 102.769531 47.410156 102.652344 47.566406 102.847656 Z M 47.566406 102.847656 " fill-opacity="1" fill-rule="nonzero"/><path fill="#fcfcfc" d="M 43.121094 104.652344 C 43.355469 104.925781 43.671875 104.847656 43.945312 104.847656 C 48.746094 104.847656 53.546875 104.847656 58.34375 104.808594 C 59.957031 104.808594 61.53125 104.808594 63.144531 104.808594 C 63.578125 104.457031 64.089844 104.535156 64.5625 104.535156 C 67.433594 104.535156 70.265625 104.535156 73.136719 104.535156 C 74.277344 104.535156 74.355469 104.457031 74.554688 103.359375 C 74.75 102.183594 75.023438 101.007812 75.222656 99.832031 C 75.300781 99.398438 75.339844 98.96875 75.734375 98.695312 C 75.773438 98.734375 75.851562 98.8125 75.890625 98.851562 C 75.535156 100.808594 75.222656 102.730469 74.867188 104.691406 C 74.75 105.28125 74.277344 105.042969 73.960938 105.042969 C 68.886719 105.082031 63.8125 105.082031 58.777344 105.082031 C 47.800781 105.082031 36.785156 105.121094 25.8125 105.121094 C 25.417969 105.121094 25.023438 105.082031 24.632812 105.082031 C 24.59375 105.082031 24.550781 105.003906 24.59375 105.003906 C 24.632812 104.964844 24.671875 104.925781 24.710938 104.886719 C 27.816406 104.886719 30.964844 104.886719 34.074219 104.886719 C 34.464844 104.886719 34.859375 104.964844 35.214844 104.652344 C 35.292969 104.574219 35.566406 104.496094 35.6875 104.574219 C 37.023438 105.28125 38.398438 104.730469 39.777344 104.925781 C 40.25 105.003906 40.5625 104.652344 40.957031 104.496094 C 41.664062 104.300781 42.332031 105.042969 43.121094 104.652344 Z M 43.121094 104.652344 " fill-opacity="1" fill-rule="nonzero"/><path fill="#19223b" d="M 66.449219 89.089844 C 66.332031 88.972656 66.292969 88.972656 66.292969 88.933594 C 66.332031 88.460938 66.410156 88.03125 66.882812 87.757812 C 66.921875 87.757812 67.078125 87.835938 67.078125 87.914062 C 67.078125 88.460938 66.683594 88.695312 66.449219 89.089844 Z M 66.449219 89.089844 " fill-opacity="1" fill-rule="nonzero"/><path fill="#1b68b1" d="M 47.132812 100.222656 C 47.132812 98.890625 47.605469 97.597656 47.722656 96.261719 C 47.566406 95.597656 47.683594 94.929688 48 94.34375 C 48.273438 93.636719 48.273438 92.851562 48.351562 92.109375 C 48.785156 88.695312 49.21875 85.324219 49.691406 81.914062 C 50.042969 79.289062 50.082031 76.664062 50.714844 74.074219 C 50.792969 73.683594 50.476562 73.332031 50.242188 73.015625 C 49.296875 71.722656 48.746094 70.195312 47.878906 68.902344 C 47.488281 68.3125 47.761719 68.195312 48.3125 68.195312 C 49.140625 68.195312 49.847656 68.625 50.59375 68.78125 C 52.324219 69.136719 54.019531 69.175781 55.710938 68.546875 C 56.417969 68.3125 57.125 68.195312 58.03125 68.117188 C 57.363281 69.332031 56.851562 70.46875 56.140625 71.488281 C 54.921875 73.210938 54.84375 75.054688 55.160156 77.054688 C 55.671875 80.113281 56.101562 83.167969 56.535156 86.265625 C 57.007812 89.636719 57.441406 93.007812 58.03125 96.339844 C 58.148438 97.125 57.871094 97.398438 57.402344 97.753906 C 56.929688 97.871094 56.417969 97.949219 56.179688 98.496094 C 56.0625 98.65625 55.867188 98.695312 55.710938 98.773438 C 54.136719 99.28125 52.71875 100.144531 51.265625 100.890625 C 50.675781 101.164062 50.003906 101.242188 49.53125 101.75 C 48.941406 101.945312 48.390625 102.144531 47.921875 102.574219 C 47.328125 102.808594 46.9375 102.730469 47.015625 101.988281 C 47.09375 101.320312 46.9375 100.769531 47.132812 100.222656 Z M 47.132812 100.222656 " fill-opacity="1" fill-rule="nonzero"/><path fill="#205e73" d="M 56.179688 98.300781 C 56.300781 97.515625 56.851562 97.636719 57.402344 97.675781 C 57.242188 97.792969 57.085938 97.910156 56.929688 98.027344 C 56.851562 98.066406 56.8125 98.066406 56.730469 98.105469 C 56.574219 98.261719 56.417969 98.457031 56.179688 98.300781 Z M 56.179688 98.300781 " fill-opacity="1" fill-rule="nonzero"/><path fill="#19223b" d="M 31.042969 69.839844 C 31.160156 69.917969 31.4375 70.039062 31.476562 70.15625 C 31.554688 70.9375 32.183594 71.410156 32.5 72.035156 C 32.695312 72.507812 33.089844 73.132812 32.460938 73.410156 C 31.949219 73.644531 31.320312 73.09375 31.082031 72.625 C 30.769531 71.917969 30.691406 71.09375 30.570312 70.351562 C 30.53125 70.078125 30.648438 69.839844 31.042969 69.839844 Z M 31.042969 69.839844 " fill-opacity="1" fill-rule="nonzero"/><path fill="#19223b" d="M 41.3125 79.171875 C 41.273438 79.484375 41.074219 79.5625 40.839844 79.523438 C 40.5625 79.484375 40.328125 79.328125 40.367188 79.015625 C 40.40625 78.699219 40.601562 78.542969 40.917969 78.582031 C 41.234375 78.621094 41.351562 78.859375 41.3125 79.171875 Z M 41.3125 79.171875 " fill-opacity="1" fill-rule="nonzero"/><path fill="#19223b" d="M 31.789062 60.355469 C 31.320312 60.707031 30.808594 60.511719 30.097656 60.628906 C 30.808594 60 31.320312 60.238281 31.789062 60.355469 Z M 31.789062 60.355469 " fill-opacity="1" fill-rule="nonzero"/><path fill="#f6bbb2" d="M 75.773438 98.695312 C 75.417969 100.613281 75.0625 102.496094 74.710938 104.417969 C 74.632812 104.964844 74.199219 104.847656 73.882812 104.847656 C 70.304688 104.847656 66.722656 104.847656 63.144531 104.847656 C 63.378906 103.90625 64.324219 103.710938 64.953125 103.28125 C 66.566406 102.222656 68.140625 101.164062 69.832031 100.300781 C 71.523438 99.4375 73.175781 98.457031 74.828125 97.515625 C 75.105469 97.359375 75.457031 96.96875 75.8125 97.242188 C 76.085938 97.476562 75.929688 97.949219 75.890625 98.300781 C 75.890625 98.417969 75.8125 98.535156 75.773438 98.695312 Z M 75.773438 98.695312 " fill-opacity="1" fill-rule="nonzero"/><path fill="#d5eaf8" d="M 56.179688 98.300781 C 56.378906 98.222656 56.535156 98.183594 56.730469 98.105469 C 56.300781 98.851562 55.589844 99.320312 54.84375 99.515625 C 53.78125 99.792969 52.917969 100.417969 51.972656 100.847656 C 51.539062 100.96875 51.183594 101.398438 50.675781 101.203125 C 50.714844 100.890625 51.027344 100.890625 51.183594 100.730469 C 52.71875 99.949219 54.214844 99.046875 55.867188 98.457031 C 55.945312 98.417969 56.0625 98.339844 56.179688 98.300781 Z M 56.179688 98.300781 " fill-opacity="1" fill-rule="nonzero"/><path fill="#42667f" d="M 47.132812 100.222656 C 47.132812 100.691406 47.171875 101.164062 47.132812 101.59375 C 47.054688 102.261719 47.328125 102.496094 47.960938 102.457031 C 47.839844 102.574219 47.683594 102.691406 47.566406 102.847656 C 47.289062 102.847656 47.132812 103.164062 46.738281 102.964844 C 47.015625 102.066406 46.777344 101.125 47.132812 100.222656 Z M 47.132812 100.222656 " fill-opacity="1" fill-rule="nonzero"/><path fill="#245874" d="M 51.144531 100.847656 C 50.988281 100.96875 50.832031 101.085938 50.675781 101.242188 C 50.242188 101.242188 50.042969 101.828125 49.574219 101.671875 C 49.769531 100.808594 50.632812 100.96875 51.144531 100.652344 C 51.226562 100.691406 51.226562 100.769531 51.144531 100.847656 Z M 51.144531 100.847656 " fill-opacity="1" fill-rule="nonzero"/><path fill="#2a6581" d="M 47.960938 102.457031 C 48.3125 101.828125 48.824219 101.554688 49.574219 101.632812 C 49.0625 102.027344 48.550781 102.300781 47.960938 102.457031 Z M 47.960938 102.457031 " fill-opacity="1" fill-rule="nonzero"/><path fill="#d5eaf8" d="M 48 94.304688 C 47.921875 94.929688 47.800781 95.597656 47.722656 96.222656 C 47.488281 95.558594 47.289062 94.851562 48 94.304688 Z M 48 94.304688 " fill-opacity="1" fill-rule="nonzero"/><path fill="#214c65" d="M 51.144531 100.847656 C 51.144531 100.769531 51.144531 100.691406 51.105469 100.613281 C 52.640625 99.792969 54.058594 98.773438 55.828125 98.457031 C 54.332031 99.359375 52.757812 100.144531 51.144531 100.847656 Z M 51.144531 100.847656 " fill-opacity="1" fill-rule="nonzero"/></g></g></g></svg>