<svg xmlns="http://www.w3.org/2000/svg" xmlns:xlink="http://www.w3.org/1999/xlink" width="250" zoomAndPan="magnify" viewBox="0 0 187.5 187.499992" height="250" preserveAspectRatio="xMidYMid meet" version="1.0"><defs><filter x="0%" y="0%" width="100%" height="100%" id="96f9e215b6"><feColorMatrix values="0 0 0 0 1 0 0 0 0 1 0 0 0 0 1 0 0 0 1 0" color-interpolation-filters="sRGB"/></filter><clipPath id="84292066ff"><path d="M 0 0 L 187 0 L 187 187 L 0 187 Z M 0 0 " clip-rule="nonzero"/></clipPath><clipPath id="c665192166"><path d="M 93.5 187 C 68.539062 187 45.03125 177.285156 27.390625 159.609375 C 9.714844 141.96875 0 118.464844 0 93.5 C 0 68.539062 9.714844 45.03125 27.390625 27.390625 C 45.03125 9.714844 68.539062 0 93.5 0 C 118.464844 0 141.96875 9.714844 159.609375 27.390625 C 177.285156 45.070312 187 68.539062 187 93.5 C 187 118.464844 177.285156 141.96875 159.609375 159.609375 C 141.96875 177.285156 118.464844 187 93.5 187 Z M 93.5 5.605469 C 70.03125 5.605469 47.945312 14.761719 31.355469 31.355469 C 14.761719 47.945312 5.605469 70.03125 5.605469 93.5 C 5.605469 116.96875 14.761719 139.054688 31.355469 155.648438 C 47.945312 172.238281 70.03125 181.394531 93.5 181.394531 C 116.96875 181.394531 139.054688 172.238281 155.648438 155.648438 C 172.238281 139.054688 181.394531 116.96875 181.394531 93.5 C 181.394531 70.03125 172.238281 47.945312 155.648438 31.355469 C 139.054688 14.761719 116.96875 5.605469 93.5 5.605469 Z M 93.5 5.605469 " clip-rule="nonzero"/></clipPath><mask id="a66cdb57e5"><g filter="url(#96f9e215b6)"><rect x="-18.75" width="225" fill="#000000" y="-18.749999" height="224.99999" fill-opacity="0.79"/></g></mask><clipPath id="e5b28e2283"><path d="M 0.910156 0.910156 L 96.652344 0.910156 L 96.652344 96.652344 L 0.910156 96.652344 Z M 0.910156 0.910156 " clip-rule="nonzero"/></clipPath><clipPath id="38391df21d"><rect x="0" width="97" y="0" height="98"/></clipPath></defs><g clip-path="url(#84292066ff)"><g clip-path="url(#c665192166)"><path fill="#570a57" d="M 0 0 L 187 0 L 187 187 L 0 187 Z M 0 0 " fill-opacity="1" fill-rule="nonzero"/></g></g><g mask="url(#a66cdb57e5)"><g transform="matrix(1, 0, 0, 1, 43, 43)"><g clip-path="url(#38391df21d)"><g clip-path="url(#e5b28e2283)"><path fill="#570a57" d="M 48.769531 0.910156 L 40.402344 6.65625 L 30.449219 4.554688 L 24.886719 13.0625 L 14.929688 14.929688 L 13.0625 24.886719 L 4.554688 30.449219 L 6.609375 40.402344 L 0.910156 48.769531 L 6.609375 57.183594 L 4.554688 67.089844 L 13.0625 72.652344 L 14.929688 82.609375 L 24.886719 84.523438 L 30.449219 92.984375 L 40.402344 90.929688 L 48.769531 96.628906 L 57.136719 90.929688 L 67.089844 92.984375 L 72.652344 84.523438 L 82.609375 82.609375 L 84.476562 72.652344 L 92.984375 67.089844 L 90.929688 57.183594 L 96.628906 48.769531 L 90.929688 40.402344 L 92.984375 30.449219 L 84.476562 24.886719 L 82.609375 14.929688 L 72.652344 13.0625 L 67.089844 4.554688 L 57.136719 6.65625 Z M 48.769531 15.863281 C 66.941406 15.863281 81.671875 30.597656 81.671875 48.769531 C 81.671875 66.941406 66.941406 81.671875 48.769531 81.671875 C 30.597656 81.671875 15.863281 66.941406 15.863281 48.769531 C 15.863281 30.597656 30.597656 15.863281 48.769531 15.863281 Z M 63.304688 33.71875 L 43.863281 54.472656 L 33.671875 45.402344 L 27.691406 52.085938 L 41.152344 64.054688 L 44.421875 66.949219 L 47.414062 63.773438 L 69.847656 39.84375 Z M 63.304688 33.71875 " fill-opacity="1" fill-rule="nonzero"/></g></g></g></g></svg>